<svg width="239" height="38" viewBox="0 0 239 38" fill="none" xmlns="http://www.w3.org/2000/svg">
<g clip-path="url(#clip0_2001_2381)">
<path d="M9.34827 23.1179V14.8821L8.25047 14.2519L0.00189209 9.5V28.5L8.25047 33.25L16.4991 38V27.2358L9.34827 23.1179Z" fill="#D94948"/>
<path d="M32.9981 9.50391V28.4983L16.5028 37.9983V27.2341L23.6517 23.1181V14.8822L29.2218 11.6767L32.9981 9.50391Z" fill="#000D59"/>
<path d="M32.9982 9.50188L29.222 11.6765L23.6519 14.8821L16.4992 10.7642L9.3484 14.8821L8.2506 14.2519L0.00201416 9.50188L16.4992 0L32.9982 9.50188Z" fill="#3C4995"/>
<path d="M16.4994 10.7637V18.9995L9.34863 23.1174V14.8816L16.4994 10.7637Z" fill="#000D59"/>
<path d="M23.6518 14.8816V23.1174L16.5029 19.0014V18.9995H16.4991V10.7637L23.6518 14.8816Z" fill="#D94948"/>
<path d="M23.6521 23.1179L16.5032 27.234L16.4994 27.2358L9.34863 23.1179L16.4994 19H16.5032V19.0019L23.6521 23.1179Z" fill="#3C4995"/>
</g>
<path d="M49.68 25.5V13.04H53.56C54.32 13.04 54.9733 13.12 55.52 13.28C56.08 13.4267 56.5467 13.64 56.92 13.92C57.2933 14.2 57.5733 14.54 57.76 14.94C57.9467 15.3267 58.04 15.7533 58.04 16.22C58.04 16.5533 57.9733 16.9 57.84 17.26C57.7067 17.62 57.5067 17.9467 57.24 18.24C56.9867 18.52 56.6733 18.74 56.3 18.9C56.6333 19.0467 56.9333 19.2267 57.2 19.44C57.48 19.6533 57.72 19.8933 57.92 20.16C58.12 20.4133 58.2667 20.6867 58.36 20.98C58.4667 21.26 58.52 21.56 58.52 21.88C58.52 22.4133 58.4133 22.9067 58.2 23.36C58 23.8133 57.6867 24.2 57.26 24.52C56.8467 24.8267 56.3333 25.0667 55.72 25.24C55.1067 25.4133 54.38 25.5 53.54 25.5H49.68ZM52.22 23.42H53.76C54.2133 23.42 54.5933 23.3533 54.9 23.22C55.22 23.0867 55.46 22.9 55.62 22.66C55.7933 22.42 55.88 22.1333 55.88 21.8C55.88 21.44 55.8 21.1267 55.64 20.86C55.4933 20.58 55.24 20.3667 54.88 20.22C54.52 20.06 54.04 19.98 53.44 19.98H52.22V23.42ZM52.22 17.96H53.38C53.9267 17.96 54.3467 17.9 54.64 17.78C54.9467 17.6467 55.16 17.4667 55.28 17.24C55.4133 17.0133 55.48 16.7467 55.48 16.44C55.48 16.2267 55.44 16.04 55.36 15.88C55.2933 15.7067 55.18 15.5667 55.02 15.46C54.86 15.34 54.66 15.2467 54.42 15.18C54.18 15.1133 53.9 15.08 53.58 15.08H52.22V17.96ZM60.14 25.5V23.5H62.74V14.04H60.26V12.04H65.3V23.5H67.86V25.5H60.14ZM73.98 25.72C73.14 25.72 72.38 25.52 71.7 25.12C71.02 24.7067 70.48 24.1333 70.08 23.4C69.68 22.6533 69.48 21.7933 69.48 20.82C69.48 19.9 69.68 19.0733 70.08 18.34C70.48 17.5933 71.02 17.0067 71.7 16.58C72.38 16.14 73.14 15.92 73.98 15.92C74.82 15.92 75.58 16.14 76.26 16.58C76.9533 17.0067 77.5 17.5933 77.9 18.34C78.3133 19.0733 78.52 19.9 78.52 20.82C78.52 21.78 78.3133 22.6333 77.9 23.38C77.5 24.1133 76.9533 24.6867 76.26 25.1C75.58 25.5133 74.82 25.72 73.98 25.72ZM73.98 23.7C74.38 23.7 74.7267 23.58 75.02 23.34C75.3267 23.1 75.5667 22.7667 75.74 22.34C75.9133 21.9 76 21.3933 76 20.82C76 20.2067 75.9133 19.6867 75.74 19.26C75.5667 18.8333 75.3267 18.5067 75.02 18.28C74.7267 18.0533 74.38 17.94 73.98 17.94C73.6067 17.94 73.2667 18.0533 72.96 18.28C72.6667 18.5067 72.4333 18.8333 72.26 19.26C72.0867 19.6867 72 20.2067 72 20.82C72 21.3933 72.0867 21.9 72.26 22.34C72.4333 22.7667 72.6667 23.1 72.96 23.34C73.2667 23.58 73.6067 23.7 73.98 23.7ZM84.52 25.74C83.84 25.74 83.2 25.6267 82.6 25.4C82.0133 25.16 81.5 24.8267 81.06 24.4C80.62 23.96 80.28 23.4467 80.04 22.86C79.8 22.2733 79.68 21.6267 79.68 20.92C79.68 20.2267 79.8 19.58 80.04 18.98C80.28 18.3667 80.62 17.8333 81.06 17.38C81.5 16.9267 82.0133 16.5733 82.6 16.32C83.2 16.0533 83.8467 15.92 84.54 15.92C85.4333 15.92 86.2067 16.08 86.86 16.4C87.5133 16.72 88.0333 17.1733 88.42 17.76L87.04 19.28L86.9 19.42L86.74 19.3C86.7267 19.1933 86.7067 19.0867 86.68 18.98C86.6667 18.86 86.5933 18.7133 86.46 18.54C86.22 18.3 85.9467 18.14 85.64 18.06C85.3467 17.9667 85.0067 17.92 84.62 17.92C84.3 17.92 84 17.9867 83.72 18.12C83.44 18.2533 83.1867 18.4467 82.96 18.7C82.7333 18.9533 82.5533 19.2667 82.42 19.64C82.3 20.0133 82.24 20.4467 82.24 20.94C82.24 21.3667 82.3067 21.76 82.44 22.12C82.5733 22.4667 82.7467 22.76 82.96 23C83.1867 23.2267 83.44 23.4067 83.72 23.54C84.0133 23.66 84.3133 23.72 84.62 23.72C84.9 23.72 85.1667 23.6867 85.42 23.62C85.6867 23.54 85.9467 23.42 86.2 23.26C86.4667 23.0867 86.72 22.8533 86.96 22.56L88.34 24.16C87.8333 24.72 87.2333 25.1267 86.54 25.38C85.86 25.62 85.1867 25.74 84.52 25.74ZM93.12 21.4L92.52 22V25.5H89.96V12.04H92.5H92.68V12.24C92.6133 12.32 92.5667 12.4067 92.54 12.5C92.5267 12.5933 92.52 12.7533 92.52 12.98V19.24L95.76 16.04C95.8667 16.0667 95.9867 16.0933 96.12 16.12C96.2533 16.1333 96.3867 16.1467 96.52 16.16C96.6533 16.1733 96.78 16.1867 96.9 16.2C97.02 16.2 97.12 16.2 97.2 16.2H98.46L94.82 19.84L98.92 25.48L96.12 25.58L93.12 21.4ZM100.08 13.04H102.62H102.8V13.24C102.733 13.32 102.687 13.4067 102.66 13.5C102.647 13.5933 102.64 13.7533 102.64 13.98V23.44H108.26V25.5H100.08V13.04ZM113.98 25.72C113.14 25.72 112.38 25.52 111.7 25.12C111.02 24.7067 110.48 24.1333 110.08 23.4C109.68 22.6533 109.48 21.7933 109.48 20.82C109.48 19.9 109.68 19.0733 110.08 18.34C110.48 17.5933 111.02 17.0067 111.7 16.58C112.38 16.14 113.14 15.92 113.98 15.92C114.82 15.92 115.58 16.14 116.26 16.58C116.953 17.0067 117.5 17.5933 117.9 18.34C118.313 19.0733 118.52 19.9 118.52 20.82C118.52 21.78 118.313 22.6333 117.9 23.38C117.5 24.1133 116.953 24.6867 116.26 25.1C115.58 25.5133 114.82 25.72 113.98 25.72ZM113.98 23.7C114.38 23.7 114.727 23.58 115.02 23.34C115.327 23.1 115.567 22.7667 115.74 22.34C115.913 21.9 116 21.3933 116 20.82C116 20.2067 115.913 19.6867 115.74 19.26C115.567 18.8333 115.327 18.5067 115.02 18.28C114.727 18.0533 114.38 17.94 113.98 17.94C113.607 17.94 113.267 18.0533 112.96 18.28C112.667 18.5067 112.433 18.8333 112.26 19.26C112.087 19.6867 112 20.2067 112 20.82C112 21.3933 112.087 21.9 112.26 22.34C112.433 22.7667 112.667 23.1 112.96 23.34C113.267 23.58 113.607 23.7 113.98 23.7ZM123.72 29.12C123.053 29.12 122.46 29.06 121.94 28.94C121.42 28.82 120.973 28.6467 120.6 28.42C120.24 28.2067 119.967 27.9467 119.78 27.64C119.593 27.3333 119.5 27 119.5 26.64C119.5 26.3333 119.58 26.04 119.74 25.76C119.9 25.4933 120.12 25.2533 120.4 25.04C120.68 24.8267 120.98 24.66 121.3 24.54L122.46 24.98C122.3 25.1 122.133 25.22 121.96 25.34C121.787 25.46 121.64 25.5867 121.52 25.72C121.413 25.8667 121.36 26.0333 121.36 26.22C121.36 26.3933 121.427 26.5333 121.56 26.64C121.693 26.76 121.88 26.8533 122.12 26.92C122.36 27 122.633 27.0533 122.94 27.08C123.247 27.12 123.587 27.14 123.96 27.14C124.44 27.14 124.847 27.1 125.18 27.02C125.513 26.94 125.767 26.8267 125.94 26.68C126.127 26.5333 126.22 26.36 126.22 26.16C126.22 25.9867 126.167 25.8467 126.06 25.74C125.953 25.6467 125.773 25.5733 125.52 25.52C125.267 25.48 124.913 25.46 124.46 25.46C124.033 25.46 123.607 25.4467 123.18 25.42C122.767 25.38 122.367 25.3133 121.98 25.22C121.607 25.1267 121.267 25 120.96 24.84C120.653 24.68 120.413 24.4867 120.24 24.26C120.08 24.02 120 23.7267 120 23.38C120 22.9133 120.14 22.52 120.42 22.2C120.7 21.8667 121.033 21.58 121.42 21.34L122.56 21.94C122.44 22.0467 122.327 22.14 122.22 22.22C122.113 22.2867 122.027 22.3533 121.96 22.42C121.893 22.4867 121.86 22.5867 121.86 22.72C121.86 22.8533 121.973 22.9733 122.2 23.08C122.427 23.1867 122.78 23.2667 123.26 23.32C123.753 23.36 124.393 23.38 125.18 23.38C125.74 23.38 126.213 23.4467 126.6 23.58C127 23.7133 127.32 23.9 127.56 24.14C127.8 24.38 127.973 24.6533 128.08 24.96C128.2 25.2533 128.26 25.5733 128.26 25.92C128.26 26.32 128.167 26.7067 127.98 27.08C127.807 27.4667 127.533 27.8133 127.16 28.12C126.787 28.4267 126.313 28.6667 125.74 28.84C125.167 29.0267 124.493 29.12 123.72 29.12ZM123.62 22.36C122.967 22.36 122.367 22.22 121.82 21.94C121.287 21.6467 120.86 21.26 120.54 20.78C120.233 20.3 120.08 19.76 120.08 19.16C120.08 18.5467 120.233 17.9933 120.54 17.5C120.86 17.0067 121.287 16.62 121.82 16.34C122.367 16.0467 122.967 15.9 123.62 15.9C124.287 15.9 124.887 16.0467 125.42 16.34C125.953 16.62 126.373 17.0067 126.68 17.5C127 17.9933 127.16 18.5467 127.16 19.16C127.16 19.76 127 20.3 126.68 20.78C126.373 21.26 125.953 21.6467 125.42 21.94C124.887 22.22 124.287 22.36 123.62 22.36ZM123.6 20.56C123.867 20.56 124.107 20.5067 124.32 20.4C124.533 20.28 124.7 20.1133 124.82 19.9C124.94 19.6733 125 19.4267 125 19.16C125 18.88 124.94 18.64 124.82 18.44C124.7 18.24 124.527 18.0867 124.3 17.98C124.087 17.86 123.853 17.8 123.6 17.8C123.373 17.8 123.153 17.86 122.94 17.98C122.74 18.1 122.567 18.26 122.42 18.46C122.287 18.66 122.22 18.8933 122.22 19.16C122.22 19.4133 122.28 19.6467 122.4 19.86C122.533 20.0733 122.7 20.2467 122.9 20.38C123.113 20.5 123.347 20.56 123.6 20.56ZM126.58 17.92L125.62 16.72C125.993 16.4533 126.427 16.2467 126.92 16.1C127.427 15.94 127.96 15.88 128.52 15.92L128.74 17.58C128.353 17.5 127.967 17.4933 127.58 17.56C127.193 17.6133 126.86 17.7333 126.58 17.92ZM130.58 25.5V23.5H132.84V18.12H130.68V16.14H135.4V23.5H137.46V25.5H130.58ZM134 14.72C133.573 14.72 133.207 14.58 132.9 14.3C132.607 14.0067 132.46 13.66 132.46 13.26C132.46 12.8333 132.6 12.48 132.88 12.2C133.173 11.92 133.547 11.78 134 11.78C134.413 11.78 134.773 11.9267 135.08 12.22C135.4 12.5133 135.56 12.86 135.56 13.26C135.56 13.66 135.4 14.0067 135.08 14.3C134.773 14.58 134.413 14.72 134 14.72ZM144.52 25.74C143.84 25.74 143.2 25.6267 142.6 25.4C142.013 25.16 141.5 24.8267 141.06 24.4C140.62 23.96 140.28 23.4467 140.04 22.86C139.8 22.2733 139.68 21.6267 139.68 20.92C139.68 20.2267 139.8 19.58 140.04 18.98C140.28 18.3667 140.62 17.8333 141.06 17.38C141.5 16.9267 142.013 16.5733 142.6 16.32C143.2 16.0533 143.847 15.92 144.54 15.92C145.433 15.92 146.207 16.08 146.86 16.4C147.513 16.72 148.033 17.1733 148.42 17.76L147.04 19.28L146.9 19.42L146.74 19.3C146.727 19.1933 146.707 19.0867 146.68 18.98C146.667 18.86 146.593 18.7133 146.46 18.54C146.22 18.3 145.947 18.14 145.64 18.06C145.347 17.9667 145.007 17.92 144.62 17.92C144.3 17.92 144 17.9867 143.72 18.12C143.44 18.2533 143.187 18.4467 142.96 18.7C142.733 18.9533 142.553 19.2667 142.42 19.64C142.3 20.0133 142.24 20.4467 142.24 20.94C142.24 21.3667 142.307 21.76 142.44 22.12C142.573 22.4667 142.747 22.76 142.96 23C143.187 23.2267 143.44 23.4067 143.72 23.54C144.013 23.66 144.313 23.72 144.62 23.72C144.9 23.72 145.167 23.6867 145.42 23.62C145.687 23.54 145.947 23.42 146.2 23.26C146.467 23.0867 146.72 22.8533 146.96 22.56L148.34 24.16C147.833 24.72 147.233 25.1267 146.54 25.38C145.86 25.62 145.187 25.74 144.52 25.74ZM153.8 25.76C153.333 25.76 152.94 25.6 152.62 25.28C152.313 24.96 152.16 24.5733 152.16 24.12C152.16 23.6667 152.313 23.2867 152.62 22.98C152.94 22.66 153.333 22.5 153.8 22.5C154.24 22.5 154.62 22.66 154.94 22.98C155.26 23.2867 155.42 23.6667 155.42 24.12C155.42 24.5733 155.26 24.96 154.94 25.28C154.62 25.6 154.24 25.76 153.8 25.76Z" fill="#000D59"/>
<path d="M166.4 22.84H161.42L161.74 21.06H166.02L166.4 22.84ZM164.02 17.5L161.74 25.5H159.22L163.32 13H164.7L168.8 25.5H166.24L164.02 17.5ZM173.46 25.74C172.927 25.74 172.427 25.64 171.96 25.44C171.493 25.2267 171.08 24.9133 170.72 24.5C170.36 24.0867 170.08 23.5733 169.88 22.96C169.68 22.3333 169.58 21.6133 169.58 20.8C169.58 20 169.673 19.2933 169.86 18.68C170.047 18.0667 170.313 17.56 170.66 17.16C171.007 16.7467 171.42 16.44 171.9 16.24C172.38 16.0267 172.9 15.92 173.46 15.92C173.74 15.92 174.007 15.9467 174.26 16C174.527 16.0533 174.773 16.1467 175 16.28C175.227 16.4133 175.413 16.6067 175.56 16.86V12.04H178.1H178.28V12.24C178.213 12.32 178.167 12.4067 178.14 12.5C178.113 12.5933 178.107 12.7533 178.12 12.98L178.08 24.32C178.08 24.52 178.093 24.72 178.12 24.92C178.147 25.1067 178.207 25.3 178.3 25.5H175.8C175.733 25.3667 175.687 25.26 175.66 25.18C175.633 25.1 175.62 25.02 175.62 24.94C175.62 24.86 175.62 24.7533 175.62 24.62C175.46 24.8733 175.267 25.0867 175.04 25.26C174.813 25.42 174.567 25.54 174.3 25.62C174.033 25.7 173.753 25.74 173.46 25.74ZM173.9 23.72C174.167 23.72 174.4 23.6667 174.6 23.56C174.813 23.44 174.987 23.2667 175.12 23.04C175.267 22.8133 175.373 22.5133 175.44 22.14C175.507 21.7667 175.54 21.32 175.54 20.8C175.54 20.1067 175.48 19.5467 175.36 19.12C175.24 18.68 175.053 18.36 174.8 18.16C174.56 17.96 174.247 17.86 173.86 17.86C173.58 17.86 173.327 17.9333 173.1 18.08C172.873 18.2133 172.68 18.4067 172.52 18.66C172.373 18.9133 172.26 19.2267 172.18 19.6C172.1 19.96 172.06 20.3667 172.06 20.82C172.06 21.42 172.147 21.94 172.32 22.38C172.507 22.82 172.74 23.1533 173.02 23.38C173.3 23.6067 173.593 23.72 173.9 23.72ZM182.96 25.5L179.52 16.14H182.18L184.36 22.54H184.04L185.18 19.72C185.393 19.1067 185.573 18.5 185.72 17.9C185.867 17.2867 185.953 16.7 185.98 16.14H188.34C188.287 16.74 188.153 17.3667 187.94 18.02C187.727 18.6733 187.487 19.3267 187.22 19.98L184.98 25.5H182.96ZM190.58 25.5V23.5H192.84V18.12H190.68V16.14H195.4V23.5H197.46V25.5H190.58ZM194 14.72C193.573 14.72 193.207 14.58 192.9 14.3C192.607 14.0067 192.46 13.66 192.46 13.26C192.46 12.8333 192.6 12.48 192.88 12.2C193.173 11.92 193.547 11.78 194 11.78C194.413 11.78 194.773 11.9267 195.08 12.22C195.4 12.5133 195.56 12.86 195.56 13.26C195.56 13.66 195.4 14.0067 195.08 14.3C194.773 14.58 194.413 14.72 194 14.72ZM204.24 25.74C203.653 25.74 203.093 25.6867 202.56 25.58C202.027 25.4733 201.527 25.3133 201.06 25.1C200.607 24.8867 200.193 24.6 199.82 24.24L200.88 22.24L200.96 22.08L201.14 22.18C201.167 22.2733 201.2 22.38 201.24 22.5C201.293 22.6067 201.4 22.7333 201.56 22.88C201.907 23.16 202.3 23.38 202.74 23.54C203.18 23.6867 203.687 23.76 204.26 23.76C204.593 23.76 204.873 23.7267 205.1 23.66C205.34 23.58 205.527 23.4733 205.66 23.34C205.793 23.1933 205.86 23.04 205.86 22.88C205.86 22.7333 205.813 22.6067 205.72 22.5C205.64 22.3933 205.513 22.3 205.34 22.22C205.167 22.1267 204.947 22.04 204.68 21.96C204.413 21.8667 204.093 21.7667 203.72 21.66C203.04 21.4867 202.453 21.2733 201.96 21.02C201.467 20.7533 201.087 20.4333 200.82 20.06C200.553 19.6867 200.42 19.24 200.42 18.72C200.42 18.2 200.573 17.7333 200.88 17.32C201.2 16.8933 201.64 16.5533 202.2 16.3C202.773 16.0467 203.433 15.92 204.18 15.92C204.553 15.92 204.913 15.9533 205.26 16.02C205.62 16.0733 205.953 16.16 206.26 16.28C206.58 16.3867 206.88 16.5333 207.16 16.72C207.44 16.8933 207.707 17.1 207.96 17.34L206.76 19.06L206.64 19.22L206.46 19.08C206.447 18.9733 206.413 18.8733 206.36 18.78C206.32 18.6867 206.227 18.5667 206.08 18.42C205.813 18.2333 205.52 18.1 205.2 18.02C204.88 17.94 204.553 17.9 204.22 17.9C203.807 17.9 203.44 17.9667 203.12 18.1C202.813 18.2333 202.66 18.4333 202.66 18.7C202.66 18.86 202.733 19.0067 202.88 19.14C203.04 19.26 203.28 19.3733 203.6 19.48C203.933 19.5867 204.353 19.7067 204.86 19.84C205.62 20.0133 206.233 20.2333 206.7 20.5C207.18 20.7667 207.533 21.0867 207.76 21.46C207.987 21.8333 208.1 22.2667 208.1 22.76C208.1 23.2933 207.947 23.7867 207.64 24.24C207.347 24.6933 206.913 25.06 206.34 25.34C205.767 25.6067 205.067 25.74 204.24 25.74ZM213.98 25.72C213.14 25.72 212.38 25.52 211.7 25.12C211.02 24.7067 210.48 24.1333 210.08 23.4C209.68 22.6533 209.48 21.7933 209.48 20.82C209.48 19.9 209.68 19.0733 210.08 18.34C210.48 17.5933 211.02 17.0067 211.7 16.58C212.38 16.14 213.14 15.92 213.98 15.92C214.82 15.92 215.58 16.14 216.26 16.58C216.953 17.0067 217.5 17.5933 217.9 18.34C218.313 19.0733 218.52 19.9 218.52 20.82C218.52 21.78 218.313 22.6333 217.9 23.38C217.5 24.1133 216.953 24.6867 216.26 25.1C215.58 25.5133 214.82 25.72 213.98 25.72ZM213.98 23.7C214.38 23.7 214.727 23.58 215.02 23.34C215.327 23.1 215.567 22.7667 215.74 22.34C215.913 21.9 216 21.3933 216 20.82C216 20.2067 215.913 19.6867 215.74 19.26C215.567 18.8333 215.327 18.5067 215.02 18.28C214.727 18.0533 214.38 17.94 213.98 17.94C213.607 17.94 213.267 18.0533 212.96 18.28C212.667 18.5067 212.433 18.8333 212.26 19.26C212.087 19.6867 212 20.2067 212 20.82C212 21.3933 212.087 21.9 212.26 22.34C212.433 22.7667 212.667 23.1 212.96 23.34C213.267 23.58 213.607 23.7 213.98 23.7ZM220.58 16.14H223.2L223.18 18.74L222.9 18.6C222.94 18.2 223.047 17.84 223.22 17.52C223.393 17.1867 223.613 16.9 223.88 16.66C224.16 16.42 224.46 16.24 224.78 16.12C225.113 15.9867 225.453 15.92 225.8 15.92C226.333 15.92 226.813 16.0067 227.24 16.18C227.667 16.3533 228.06 16.6267 228.42 17L227.36 19.16L227.3 19.32L227.1 19.24C227.06 19.1333 227.02 19.02 226.98 18.9C226.953 18.78 226.867 18.64 226.72 18.48C226.533 18.3467 226.333 18.2333 226.12 18.14C225.907 18.0467 225.673 18 225.42 18C225.1 18 224.8 18.0533 224.52 18.16C224.253 18.2533 224.02 18.4067 223.82 18.62C223.62 18.8333 223.46 19.1067 223.34 19.44C223.22 19.76 223.16 20.1533 223.16 20.62V25.5H220.58V16.14ZM234.24 25.74C233.653 25.74 233.093 25.6867 232.56 25.58C232.027 25.4733 231.527 25.3133 231.06 25.1C230.607 24.8867 230.193 24.6 229.82 24.24L230.88 22.24L230.96 22.08L231.14 22.18C231.167 22.2733 231.2 22.38 231.24 22.5C231.293 22.6067 231.4 22.7333 231.56 22.88C231.907 23.16 232.3 23.38 232.74 23.54C233.18 23.6867 233.687 23.76 234.26 23.76C234.593 23.76 234.873 23.7267 235.1 23.66C235.34 23.58 235.527 23.4733 235.66 23.34C235.793 23.1933 235.86 23.04 235.86 22.88C235.86 22.7333 235.813 22.6067 235.72 22.5C235.64 22.3933 235.513 22.3 235.34 22.22C235.167 22.1267 234.947 22.04 234.68 21.96C234.413 21.8667 234.093 21.7667 233.72 21.66C233.04 21.4867 232.453 21.2733 231.96 21.02C231.467 20.7533 231.087 20.4333 230.82 20.06C230.553 19.6867 230.42 19.24 230.42 18.72C230.42 18.2 230.573 17.7333 230.88 17.32C231.2 16.8933 231.64 16.5533 232.2 16.3C232.773 16.0467 233.433 15.92 234.18 15.92C234.553 15.92 234.913 15.9533 235.26 16.02C235.62 16.0733 235.953 16.16 236.26 16.28C236.58 16.3867 236.88 16.5333 237.16 16.72C237.44 16.8933 237.707 17.1 237.96 17.34L236.76 19.06L236.64 19.22L236.46 19.08C236.447 18.9733 236.413 18.8733 236.36 18.78C236.32 18.6867 236.227 18.5667 236.08 18.42C235.813 18.2333 235.52 18.1 235.2 18.02C234.88 17.94 234.553 17.9 234.22 17.9C233.807 17.9 233.44 17.9667 233.12 18.1C232.813 18.2333 232.66 18.4333 232.66 18.7C232.66 18.86 232.733 19.0067 232.88 19.14C233.04 19.26 233.28 19.3733 233.6 19.48C233.933 19.5867 234.353 19.7067 234.86 19.84C235.62 20.0133 236.233 20.2333 236.7 20.5C237.18 20.7667 237.533 21.0867 237.76 21.46C237.987 21.8333 238.1 22.2667 238.1 22.76C238.1 23.2933 237.947 23.7867 237.64 24.24C237.347 24.6933 236.913 25.06 236.34 25.34C235.767 25.6067 235.067 25.74 234.24 25.74Z" fill="#D94948"/>
<defs>
<clipPath id="clip0_2001_2381">
<rect width="33" height="38" fill="white"/>
</clipPath>
</defs>
</svg>
