<svg width="164" height="27" viewBox="0 0 164 27" fill="none" xmlns="http://www.w3.org/2000/svg">
<path d="M19.0428 26.998C21.9563 26.998 24.318 24.6407 24.318 21.733C24.318 18.8251 21.9563 16.4678 19.0428 16.4678C16.1295 16.4678 13.7677 18.8251 13.7677 21.733C13.7677 24.6407 16.1295 26.998 19.0428 26.998Z" fill="#201D1D"/>
<path d="M32.827 26.998C35.7404 26.998 38.1022 24.6407 38.1022 21.733C38.1022 18.8251 35.7404 16.4678 32.827 16.4678C29.9135 16.4678 27.5518 18.8251 27.5518 21.733C27.5518 24.6407 29.9135 26.998 32.827 26.998Z" fill="#201D1D"/>
<path d="M25.9321 0C11.6089 0 -0.00374833 11.8113 9.07601e-07 26.3768H6.62489C6.62489 15.4611 15.2006 6.61102 25.9321 6.61102C36.6638 6.61102 45.2395 15.4611 45.2395 26.3768H51.8644C51.8669 11.8113 40.2542 0 25.9321 0Z" fill="#201D1D"/>
<path d="M149.242 21.4442C145.753 21.4442 142.652 18.9208 141.853 15.4369H162.57C162.57 15.4369 162.682 14.1746 162.682 13.728C162.682 6.33368 156.654 0.316406 149.246 0.316406C141.837 0.316406 135.81 6.33245 135.81 13.728C135.81 21.1236 141.803 27 149.246 27C156.688 27 161.033 21.5278 162.118 17.5662H155.803C155.803 17.5662 153.795 21.4442 149.242 21.4442ZM149.246 5.86966C152.591 5.86966 155.495 8.07501 156.49 11.3618H142.001C142.992 8.07501 145.898 5.86966 149.246 5.86966Z" fill="#201D1D"/>
<path d="M70.1839 27C62.7753 27 56.964 21.0463 56.964 13.728C56.964 6.40977 62.9916 0.316406 70.4 0.316406C77.8086 0.316406 83.836 6.56944 83.836 13.657C83.836 16.6768 83.836 26.3351 83.836 26.3351H78.6196V22.1041L78.2397 22.0043C77.3211 24.2521 73.9945 27 70.1839 27ZM70.4 5.86966C66.216 5.86966 62.8103 9.376 62.8103 13.6869C62.8103 17.9977 66.2146 21.4454 70.4 21.4454C74.5854 21.4454 77.9898 17.9653 77.9898 13.6869C77.9898 9.40844 74.5854 5.86966 70.4 5.86966Z" fill="#201D1D"/>
<path d="M98.7198 27C91.3113 27 85.5 21.0463 85.5 13.728C85.5 6.40977 91.5276 0.316406 98.936 0.316406C106.345 0.316406 112.372 6.56944 112.372 13.657C112.372 16.6768 112.372 26.3351 112.372 26.3351H107.156V22.1041L106.776 22.0043C105.857 24.2521 102.53 27 98.7198 27ZM98.936 5.86966C94.7518 5.86966 91.3463 9.376 91.3463 13.6869C91.3463 17.9977 94.7506 21.4454 98.936 21.4454C103.121 21.4454 106.526 17.9653 106.526 13.6869C106.526 9.40844 103.121 5.86966 98.936 5.86966Z" fill="#201D1D"/>
<path d="M121.129 26.3333L110.423 0.984375H116.28L124.128 19.6574L131.976 0.984375H137.832L127.127 26.3333H121.129Z" fill="#201D1D"/>
</svg>
