<svg width="155" height="31" viewBox="0 0 155 31" fill="none" xmlns="http://www.w3.org/2000/svg">
<g clip-path="url(#clip0_2001_2322)">
<path d="M26.074 18.8965C31.6189 19.9748 35.4101 22.0774 35.4101 24.5035C35.4101 28.0078 27.5183 30.8652 17.7695 30.8652C8.02075 30.8652 0.128906 28.0348 0.128906 24.5035C0.128906 22.0774 3.8943 19.9748 9.46501 18.8965C11.8893 19.5435 14.7262 19.9209 17.7695 19.9209C20.8128 19.9209 23.6497 19.5704 26.074 18.8965ZM23.9592 8.62607C28.6788 9.43477 31.9284 11.16 31.9284 13.1817C31.9284 15.9582 25.584 18.2226 17.7695 18.2226C9.95503 18.2226 3.6106 15.9582 3.6106 13.1548C3.6106 11.16 6.86019 9.43476 11.5798 8.59911C13.3851 9.08433 15.5 9.3539 17.7695 9.3539C20.0133 9.38086 22.1281 9.08433 23.9592 8.62607ZM17.8211 0.134766C23.6755 0.134766 28.4209 1.85999 28.4209 3.9626C28.4209 6.0652 23.6755 7.79042 17.8211 7.79042C11.9667 7.79042 7.22125 6.0652 7.22125 3.9626C7.22125 1.85999 11.9667 0.134766 17.8211 0.134766ZM57.8993 25.4739C59.3693 25.4739 60.6073 25.2313 61.5615 24.773C62.5416 24.2878 63.2637 23.6409 63.7537 22.8052C64.2437 21.9696 64.5016 20.9991 64.4758 20.0017C64.4758 18.9774 64.2695 18.1148 63.8827 17.3869C63.4958 16.6861 62.98 16.12 62.3352 15.7156C61.7421 15.3382 61.0715 15.0956 60.3752 15.0687V14.88C60.9683 14.7452 61.5615 14.4756 62.0773 14.0982C62.5931 13.7478 62.98 13.2626 63.2895 12.6965C63.599 12.1304 63.7279 11.4295 63.7279 10.5939C63.7279 9.5965 63.4958 8.70694 63.0316 7.9252C62.5673 7.14346 61.871 6.52346 60.9425 6.0652C60.0141 5.60694 58.8535 5.39129 57.4609 5.39129H50.0848V25.5009H57.8993V25.4739ZM57.0482 13.9096H53.5923V8.35651H57.1256C58.1572 8.35651 58.9309 8.62607 59.4467 9.11128C59.9625 9.62346 60.2462 10.2435 60.2462 11.0252C60.2462 11.6182 60.0915 12.1304 59.8336 12.5617C59.5499 12.993 59.163 13.3165 58.6988 13.5591C58.1572 13.8017 57.6156 13.9096 57.0482 13.9096ZM57.3577 22.4278H53.6181V16.5243H57.4609C58.183 16.5243 58.8019 16.6591 59.3178 16.9556C59.8336 17.2252 60.2462 17.6026 60.5299 18.0878C60.8136 18.573 60.9683 19.1122 60.9683 19.7052C60.9683 20.5139 60.6846 21.1609 60.1173 21.673C59.5241 22.1852 58.6214 22.4278 57.3577 22.4278ZM70.7945 25.7704C71.5424 25.7704 72.1871 25.6626 72.7545 25.4469C73.3219 25.2313 73.7861 24.9348 74.1472 24.5843C74.5341 24.2339 74.8178 23.8295 75.0241 23.3982H75.1272V25.4739H78.4026V15.3922C78.4026 14.3948 78.2221 13.5591 77.8868 12.8852C77.5515 12.2382 77.0873 11.6991 76.5199 11.2948C75.9267 10.8904 75.3078 10.6208 74.6372 10.4591C73.9667 10.2704 73.2703 10.2165 72.574 10.2165C71.5682 10.2165 70.6397 10.3782 69.8144 10.6748C69.0149 10.9713 68.2928 11.4565 67.6996 12.0765C67.1064 12.7235 66.6938 13.5322 66.4617 14.3948L69.6339 14.88C69.7886 14.3678 70.1239 13.9096 70.6139 13.5322C71.1039 13.1548 71.7487 12.9661 72.5998 12.9661C73.3993 12.9661 73.9925 13.1548 74.4051 13.5861C74.8178 13.9904 75.0499 14.5565 75.0499 15.3113V15.3652C75.0499 15.6887 74.9209 15.9582 74.6888 16.12C74.4567 16.2817 74.0698 16.3896 73.5282 16.4704C72.9866 16.5513 72.3161 16.6322 71.465 16.713C70.7945 16.7939 70.0981 16.9017 69.4276 17.0904C68.8086 17.2522 68.2154 17.4948 67.648 17.8452C67.1322 18.1687 66.7196 18.6269 66.4101 19.193C66.1006 19.7591 65.9459 20.46 65.9459 21.2956C65.9459 22.293 66.1522 23.1287 66.5906 23.8026C67.0033 24.4765 67.5965 24.9887 68.3186 25.3391C69.0407 25.6087 69.866 25.7704 70.7945 25.7704ZM71.6713 23.1556C70.9492 23.1556 70.3818 22.9939 69.9176 22.6435C69.4534 22.32 69.2213 21.8078 69.2213 21.1609C69.2213 20.7026 69.3244 20.3252 69.5823 20.0287C69.8144 19.7322 70.1239 19.5165 70.5108 19.3548C70.9492 19.1661 71.4134 19.0582 71.8777 19.0043L72.6772 18.8965C72.9866 18.8696 73.2961 18.7887 73.6056 18.7348C73.9151 18.6809 74.1988 18.6 74.4567 18.5191C74.7146 18.4382 74.8951 18.3574 74.9983 18.2496V20.0287C74.9983 20.5948 74.8693 21.1069 74.5856 21.5652C74.3019 22.0504 73.9151 22.4278 73.4251 22.6974C72.9351 23.0209 72.3419 23.1556 71.6713 23.1556ZM84.4891 25.4739V5.36433H81.0848V25.4739H84.4891ZM91.4009 25.7704C92.1489 25.7704 92.8194 25.6626 93.361 25.4469C93.9284 25.2313 94.3926 24.9348 94.7537 24.5843C95.1405 24.2339 95.4242 23.8295 95.6306 23.3982H95.7337V25.4739H99.0349V15.3922C99.0349 14.3948 98.8544 13.5591 98.5191 12.8852C98.1838 12.2382 97.7196 11.6991 97.1522 11.2948C96.559 10.8904 95.94 10.6208 95.2695 10.4591C94.599 10.2704 93.9026 10.2165 93.2063 10.2165C92.2004 10.2165 91.272 10.3782 90.4467 10.6748C89.6472 10.9713 88.9251 11.4565 88.3319 12.0765C87.7387 12.7235 87.3003 13.5322 87.094 14.3948L90.2662 14.88C90.4467 14.3678 90.7562 13.9096 91.2462 13.5322C91.7362 13.1548 92.381 12.9661 93.2321 12.9661C94.0316 12.9661 94.6247 13.1548 95.0374 13.5861C95.45 13.9904 95.6564 14.5565 95.6564 15.3113V15.3652C95.6564 15.6887 95.5274 15.9582 95.2953 16.12C95.0632 16.2817 94.6763 16.3896 94.1347 16.4704C93.6189 16.5513 92.9226 16.6322 92.0715 16.713C91.3752 16.7939 90.7046 16.9017 90.0341 17.0904C89.4151 17.2522 88.8219 17.4948 88.2803 17.8452C87.7645 18.1687 87.3261 18.6269 87.0424 19.193C86.7329 19.7591 86.6039 20.46 86.6039 21.2956C86.6039 22.293 86.8103 23.1287 87.2487 23.8026C87.6613 24.4765 88.2545 24.9887 88.9767 25.3391C89.673 25.6087 90.4983 25.7704 91.4009 25.7704ZM92.3036 23.1556C91.6073 23.1556 91.0141 22.9939 90.5499 22.6435C90.0856 22.32 89.8793 21.8078 89.8793 21.1609C89.8793 20.7026 89.9825 20.3252 90.2146 20.0287C90.4467 19.7322 90.7562 19.5165 91.1688 19.3548C91.6073 19.1661 92.0715 19.0582 92.5357 19.0043L93.3352 18.8965C93.6447 18.8696 93.9542 18.7887 94.2637 18.7348C94.5732 18.6809 94.8569 18.6 95.1148 18.5191C95.3727 18.4382 95.5532 18.3574 95.6564 18.2496V20.0287C95.6564 20.5948 95.5274 21.1069 95.2437 21.5652C94.96 22.0504 94.5732 22.4278 94.0831 22.6974C93.5673 23.0209 92.9742 23.1556 92.3036 23.1556ZM105.121 25.4739V16.6322C105.121 15.9043 105.25 15.2843 105.534 14.7722C105.792 14.26 106.153 13.8556 106.617 13.5861C107.107 13.3165 107.649 13.1817 108.19 13.1817C109.067 13.1817 109.764 13.4782 110.254 14.0443C110.744 14.6104 111.002 15.3922 111.002 16.4165V25.4739H114.406V15.8774C114.406 14.6643 114.2 13.64 113.813 12.8043C113.4 11.9687 112.833 11.3217 112.085 10.8635C111.337 10.4052 110.46 10.1895 109.48 10.1895C108.397 10.1895 107.494 10.4322 106.772 10.9443C106.05 11.4296 105.508 12.1304 105.173 12.9661H104.992V10.4052H101.743V25.5009H105.121V25.4739ZM123.433 25.7704C124.645 25.7704 125.702 25.5278 126.579 25.0695C127.456 24.6382 128.178 23.9643 128.72 23.1287C129.235 22.293 129.545 21.3495 129.622 20.2982H126.373C126.295 20.7835 126.089 21.2687 125.805 21.673C125.547 22.0504 125.212 22.3469 124.799 22.5356C124.387 22.7243 123.948 22.8322 123.458 22.8322C122.736 22.8322 122.143 22.6435 121.601 22.2391C121.086 21.8348 120.673 21.2687 120.389 20.5409C120.106 19.813 119.951 18.9235 119.951 17.8991C119.951 16.8748 120.106 16.0122 120.389 15.2843C120.673 14.5565 121.086 13.9904 121.627 13.613C122.143 13.2087 122.762 13.02 123.458 13.02C124.284 13.02 124.928 13.2626 125.418 13.7478C125.908 14.233 126.218 14.853 126.347 15.5808H129.596C129.519 14.5026 129.21 13.5322 128.668 12.7235C128.126 11.9148 127.378 11.2409 126.502 10.8365C125.599 10.3782 124.567 10.1626 123.381 10.1626C121.963 10.1626 120.75 10.4861 119.719 11.16C118.687 11.8069 117.862 12.7774 117.32 13.9096C116.753 15.0687 116.469 16.4435 116.469 17.98C116.469 19.5165 116.753 20.8643 117.294 22.0235C117.862 23.1826 118.636 24.0991 119.667 24.773C120.75 25.4469 121.988 25.7704 123.433 25.7704ZM138.081 25.7704C139.19 25.7704 140.196 25.5817 141.073 25.2313C141.95 24.8809 142.646 24.3687 143.214 23.7217C143.781 23.0748 144.168 22.293 144.349 21.4304L141.176 21.053C141.022 21.4843 140.789 21.8348 140.506 22.1313C140.196 22.4278 139.861 22.6435 139.448 22.7782C139.01 22.94 138.572 23.0208 138.107 22.9939C137.359 22.9939 136.715 22.8322 136.173 22.5087C135.606 22.1852 135.167 21.673 134.883 21.08C134.574 20.46 134.419 19.7052 134.419 18.8156V18.8965H144.477V17.8182C144.477 16.4974 144.297 15.3652 143.936 14.3948C143.575 13.4243 143.111 12.6426 142.492 12.0226C141.898 11.4026 141.176 10.9443 140.377 10.6478C139.577 10.3513 138.726 10.1895 137.849 10.1895C136.482 10.1895 135.27 10.513 134.264 11.1869C133.233 11.8609 132.408 12.8043 131.892 13.9365C131.324 15.0956 131.041 16.4704 131.041 18.0339C131.041 19.6243 131.324 20.9722 131.892 22.1313C132.459 23.2904 133.259 24.2069 134.316 24.8269C135.373 25.4469 136.637 25.7704 138.081 25.7704ZM134.445 16.3895C134.471 15.8504 134.626 15.3382 134.883 14.853C135.167 14.2869 135.58 13.8287 136.121 13.4782C136.663 13.1278 137.308 12.9391 137.953 12.9661C138.597 12.9661 139.165 13.1278 139.655 13.4243C140.145 13.7478 140.532 14.1522 140.815 14.6913C141.099 15.2304 141.228 15.8235 141.228 16.5243H134.445V16.3895ZM150.048 25.4739V16.6052C150.048 15.9582 150.177 15.3922 150.461 14.9069C150.745 14.4217 151.131 14.0174 151.621 13.7478C152.137 13.4513 152.705 13.3165 153.272 13.3165C153.556 13.3165 153.865 13.3435 154.175 13.3704C154.484 13.4243 154.716 13.4513 154.845 13.5052V10.2435C154.665 10.2165 154.458 10.1896 154.252 10.1626C154.046 10.1356 153.839 10.1356 153.607 10.1356C152.782 10.1356 152.034 10.3782 151.389 10.8365C150.745 11.3217 150.306 11.9687 150.022 12.8582H149.868V10.3513H146.566V25.4469H150.048V25.4739Z" fill="black"/>
</g>
<defs>
<clipPath id="clip0_2001_2322">
<rect width="155" height="31" fill="white"/>
</clipPath>
</defs>
</svg>
