<svg width="144" height="32" viewBox="0 0 144 32" fill="none" xmlns="http://www.w3.org/2000/svg">
<g clip-path="url(#clip0_2001_2317)">
<path fill-rule="evenodd" clip-rule="evenodd" d="M140.947 18.2449C140.947 16.3457 139.852 14.9644 138.124 14.9644C136.396 14.9644 135.302 16.3457 135.302 18.2449C135.302 20.1442 136.396 21.5255 138.124 21.5255C139.852 21.5255 140.947 20.1442 140.947 18.2449ZM140.889 13.6982V8.8061C140.889 8.46078 141.12 8.17301 141.408 8.11545L144 7.4248V23.9946H141.12V22.5557C140.371 23.5917 139.104 24.2248 137.433 24.2248C134.092 24.2248 132.134 21.5198 132.134 18.1816C132.134 14.8435 134.092 12.1385 137.433 12.1385C139.046 12.1385 140.256 12.8291 140.832 13.6349L140.889 13.6982ZM123.097 12.4896V13.9284C123.615 12.95 124.825 12.2593 126.553 12.2593C129.317 12.2593 130.815 14.1011 130.815 16.8637V24.0579H127.705V17.209C127.705 15.8852 127.129 14.9644 125.746 14.9644C124.249 14.9644 123.385 15.9428 123.385 17.4967V24.1155H120.274V12.5471H123.154L123.097 12.4896ZM112.907 24.2824C109.509 24.2824 107.666 22.8435 107.666 19.1025V12.4896H110.776V19.1658C110.776 20.7773 111.525 21.5255 112.907 21.5255C114.29 21.5255 115.038 20.7773 115.038 19.1658V12.4896H118.149V19.1083C118.149 22.8493 116.306 24.2824 112.907 24.2824ZM97.3033 18.2449C97.3033 20.3169 98.5705 21.5255 100.241 21.5255C101.911 21.5255 103.179 20.3169 103.179 18.2449C103.179 16.173 101.911 14.9644 100.241 14.9644C98.5705 14.9644 97.3033 16.173 97.3033 18.2449ZM100.241 24.2824C96.5545 24.2824 94.1929 21.5198 94.1929 18.2392C94.1929 14.9586 96.5545 12.196 100.241 12.196C103.927 12.196 106.289 14.9586 106.289 18.2392C106.289 21.5198 103.927 24.2824 100.241 24.2824ZM84.6371 18.2449C84.6371 20.1442 85.7315 21.5255 87.4595 21.5255C89.1875 21.5255 90.2819 20.0867 90.2819 18.2449C90.2819 16.3457 89.1875 14.9644 87.4595 14.9644C85.7315 14.9644 84.6371 16.3457 84.6371 18.2449ZM84.7523 22.7917V27.5687C84.7523 27.914 84.5219 28.2018 84.2339 28.2593L81.6419 28.95V12.432H84.5219V13.8708C85.2707 12.8349 86.5379 12.2018 88.2083 12.2018C91.5491 12.2018 93.5075 14.9068 93.5075 18.2449C93.5075 21.5831 91.5491 24.2881 88.2083 24.2881C86.5955 24.2881 85.3859 23.5975 84.8099 22.7917H84.7523ZM72.3164 17.4392V24.0003H69.206V17.1514C69.206 15.8852 68.7452 14.9068 67.3628 14.9068C65.9228 14.9068 65.1164 15.8277 65.1164 17.3816V24.0003H62.006V12.432H64.886V13.8708C65.4044 12.8924 66.5564 12.2018 68.2268 12.2018C69.782 12.2018 70.934 12.8349 71.5676 13.8133C72.6044 12.6622 73.7564 12.2018 75.4268 12.2018C78.1916 12.2018 79.6316 14.1011 79.6316 16.8061V24.0003H76.5212V17.1514C76.5212 15.8852 76.0604 14.9068 74.678 14.9068C73.1804 14.9068 72.4316 15.8277 72.4316 17.4392H72.3164ZM51.5286 18.2449C51.5286 20.3169 52.7958 21.5255 54.4662 21.5255C56.1366 21.5255 57.4038 20.3169 57.4038 18.2449C57.4038 16.173 56.1366 14.9644 54.4662 14.9644C52.7958 14.9644 51.5286 16.173 51.5286 18.2449ZM54.4662 24.2824C50.7798 24.2824 48.4182 21.5198 48.4182 18.2392C48.4182 14.9586 50.7798 12.196 54.4662 12.196C58.1526 12.196 60.5142 14.9586 60.5142 18.2392C60.5142 21.5198 58.1526 24.2824 54.4662 24.2824ZM32.1289 16.173C32.1289 11.2809 35.5273 8.06365 40.0143 8.06365C43.9311 8.06365 46.9839 10.3658 47.6118 14.1644H44.1558C43.695 12.2075 42.0822 11.114 40.0086 11.114C37.1286 11.114 35.5158 13.0708 35.5158 16.1788C35.5158 19.2867 37.1286 21.2435 40.0086 21.2435C42.0822 21.2435 43.695 20.15 44.1558 18.1931H47.6118C47.0358 21.9917 43.9254 24.2939 40.0143 24.2939C35.5273 24.2824 32.1289 21.0651 32.1289 16.173Z" fill="black"/>
<path fill-rule="evenodd" clip-rule="evenodd" d="M1.2672 24.9728C0.4608 24.5124 0 23.5915 0 22.6707V17.4332C0 17.2606 0.0576 17.0304 0.1728 16.8577C0.4608 16.3397 1.152 16.1671 1.728 16.4548L13.4726 23.3037C14.1638 23.7066 14.567 24.4548 14.567 25.2606V30.6707C14.567 30.9009 14.5094 31.1886 14.3942 31.3613C13.991 31.9944 13.1846 32.1671 12.551 31.8217L1.3248 24.9728H1.2672ZM18.8294 15.0793C19.5206 15.4822 19.9238 16.2304 19.9238 17.0361V27.9656C19.9238 28.3109 19.751 28.5987 19.463 28.7714L16.871 30.2102C16.8134 30.2102 16.8134 30.2678 16.7558 30.2678V24.1671C16.7558 23.3613 16.3526 22.6707 15.6614 22.2678L5.3568 16.1153V9.26633C5.3568 9.09367 5.4144 8.86346 5.5296 8.69079C5.8176 8.17281 6.5088 8.00015 7.0848 8.28792L18.8294 15.1368V15.0793ZM23.9501 6.96993C24.6413 7.37281 25.0445 8.12101 25.0445 8.92677V24.921C25.0445 25.2663 24.8717 25.5541 24.5837 25.7268L22.1645 27.0505V15.885C22.1645 15.0793 21.7613 14.3886 21.0701 13.9858L10.535 7.65482V1.15123C10.535 0.978563 10.5926 0.748348 10.7078 0.575686C10.9958 0.0577002 11.687 -0.114962 12.263 0.172808L24.0077 7.02173L23.9501 6.96993Z" fill="#00D395"/>
</g>
<defs>
<clipPath id="clip0_2001_2317">
<rect width="144" height="32" fill="white"/>
</clipPath>
</defs>
</svg>
