<svg width="104" height="32" viewBox="0 0 104 32" fill="none" xmlns="http://www.w3.org/2000/svg">
<g clip-path="url(#clip0_2001_2329)">
<path d="M81.2653 0.204102L87.7961 9.39183L84.385 14.4064L74.3059 0.204102H81.2653Z" fill="url(#paint0_linear_2001_2329)"/>
<path d="M96.589 31.402L89.3553 21.2383L92.7665 16.3584L103.411 31.402H96.589Z" fill="url(#paint1_linear_2001_2329)"/>
<path d="M33.3211 0.204102L40.2805 9.67789L36.458 14.9617L26.1046 0.204102H33.3211Z" fill="url(#paint2_linear_2001_2329)"/>
<path d="M95.921 0.203352L73.7573 31.3844H80.5624L102.863 0.186523H95.921V0.203352ZM65.8038 0.203352H71.7689V31.4012H65.8038V30.2233C64.0896 31.1488 62.1012 31.6705 60.01 31.6705C53.342 31.6705 47.9254 26.3867 47.9254 19.8745C47.9254 13.3623 53.3249 8.07855 60.01 8.07855C62.1184 8.07855 64.0896 8.6002 65.8038 9.5257V0.203352ZM59.9414 26.4877C63.7125 26.4877 66.7808 23.4924 66.7808 19.8072C66.7808 16.122 63.7125 13.1268 59.9414 13.1268C56.1704 13.1268 53.1021 16.122 53.1021 19.8072C53.1021 23.4924 56.1704 26.4877 59.9414 26.4877ZM48.5253 0.203352L26.3617 31.3844H33.3039L55.4333 0.186523H48.5253V0.203352ZM18.4252 0.203352H24.3904V31.4012H18.4252V30.2233C16.7111 31.1488 14.7227 31.6705 12.6315 31.6705C5.96352 31.6705 0.546875 26.3867 0.546875 19.8745C0.546875 13.3623 5.94638 8.07855 12.6315 8.07855C14.7399 8.07855 16.7111 8.6002 18.4252 9.5257V0.203352ZM12.5629 26.4877C16.334 26.4877 19.4023 23.4924 19.4023 19.8072C19.4023 16.122 16.334 13.1268 12.5629 13.1268C8.79183 13.1268 5.72354 16.122 5.72354 19.8072C5.72354 23.4924 8.79183 26.4877 12.5629 26.4877Z" fill="#1C1D22"/>
</g>
<defs>
<linearGradient id="paint0_linear_2001_2329" x1="78.9758" y1="2.74438" x2="88.1127" y2="13.9806" gradientUnits="userSpaceOnUse">
<stop stop-color="#1C1D22"/>
<stop offset="1" stop-color="#1C1D22" stop-opacity="0.55"/>
</linearGradient>
<linearGradient id="paint1_linear_2001_2329" x1="98.4132" y1="28.8326" x2="87.2086" y2="13.4459" gradientUnits="userSpaceOnUse">
<stop stop-color="#6966FF"/>
<stop offset="1" stop-color="#6966FF" stop-opacity="0.36"/>
</linearGradient>
<linearGradient id="paint2_linear_2001_2329" x1="30.9544" y1="2.8737" x2="40.4241" y2="14.6695" gradientUnits="userSpaceOnUse">
<stop stop-color="#1C1D22"/>
<stop offset="1" stop-color="#1C1D22" stop-opacity="0.55"/>
</linearGradient>
<clipPath id="clip0_2001_2329">
<rect width="104" height="32" fill="white"/>
</clipPath>
</defs>
</svg>
