<svg width="127" height="33" viewBox="0 0 127 33" fill="none" xmlns="http://www.w3.org/2000/svg">
<g clip-path="url(#clip0_2001_2358)">
<path d="M52.0648 24.9598C50.475 24.9598 49.0383 24.615 47.774 23.9446C46.4906 23.255 45.4946 22.2972 44.7667 21.0713C44.0388 19.8453 43.6748 18.4661 43.6748 16.9528C43.6748 15.4396 44.0388 14.0795 44.7667 12.8536C45.4946 11.6277 46.4906 10.6699 47.774 9.9803C49.0575 9.29071 50.475 8.92676 52.0648 8.92676C53.6547 8.92676 55.0914 9.27155 56.3557 9.9803C57.6391 10.6699 58.6351 11.6085 59.363 12.8344C60.0909 14.0412 60.4549 15.4204 60.4549 16.9528C60.4549 18.4853 60.0909 19.8453 59.363 21.0713C58.6351 22.278 57.6391 23.2358 56.3557 23.9446C55.0722 24.615 53.6356 24.9598 52.0648 24.9598ZM52.0648 22.4313C53.0992 22.4313 54.0379 22.2014 54.8615 21.7417C55.6852 21.2628 56.3365 20.6115 56.8154 19.7878C57.2943 18.945 57.5241 18.0064 57.5241 16.972C57.5241 15.9376 57.2943 14.999 56.8154 14.1753C56.3365 13.3325 55.6852 12.6812 54.8615 12.2215C54.0379 11.7426 53.0992 11.5127 52.0648 11.5127C51.0305 11.5127 50.0919 11.7426 49.2682 12.2215C48.4445 12.6812 47.7932 13.3325 47.3143 14.1753C46.8354 14.999 46.6056 15.9376 46.6056 16.972C46.6056 18.0064 46.8354 18.945 47.3143 19.7878C47.7932 20.6115 48.4445 21.2628 49.2682 21.7417C50.0919 22.2014 51.0113 22.4313 52.0648 22.4313ZM79.4762 24.7299L76.2964 20.1709C76.1623 20.1901 75.9707 20.1901 75.7026 20.1901H72.1971V24.7299H69.3047V9.15662H75.7026C77.0434 9.15662 78.2311 9.38648 79.208 9.82706C80.2232 10.2676 80.9894 10.9189 81.5258 11.7426C82.0621 12.5663 82.3303 13.5624 82.3303 14.6925C82.3303 15.861 82.043 16.8762 81.4683 17.7191C80.9128 18.5619 80.0891 19.194 79.0164 19.6154L82.5985 24.7299H79.4762ZM79.4187 14.7117C79.4187 13.7156 79.0931 12.9494 78.4418 12.413C77.7905 11.8767 76.8327 11.6085 75.5685 11.6085H72.178V17.8148H75.5685C76.8327 17.8148 77.7905 17.5467 78.4418 17.0103C79.0931 16.474 79.4187 15.6886 79.4187 14.7117ZM98.5549 24.9598C96.9842 24.9598 95.5667 24.615 94.2833 23.9446C93.019 23.255 92.0229 22.2972 91.295 21.0713C90.5863 19.8645 90.2223 18.4853 90.2223 16.9528C90.2223 15.4204 90.5863 14.0604 91.3142 12.8344C92.0421 11.6277 93.0382 10.6699 94.3024 9.9803C95.5858 9.29071 97.0033 8.92676 98.574 8.92676C99.8575 8.92676 101.007 9.15662 102.06 9.5972C103.114 10.0378 103.995 10.6891 104.723 11.5319L102.846 13.2942C101.716 12.0874 100.336 11.4744 98.689 11.4744C97.6163 11.4744 96.6585 11.7043 95.8157 12.1832C94.9728 12.6429 94.3024 13.2942 93.8427 14.1179C93.3638 14.9415 93.1339 15.8993 93.1339 16.9337C93.1339 17.9872 93.3638 18.9259 93.8427 19.7495C94.3216 20.5732 94.9728 21.2245 95.8157 21.7034C96.6585 22.1631 97.6163 22.393 98.689 22.393C100.336 22.393 101.716 21.78 102.846 20.5541L104.723 22.3355C103.995 23.1783 103.095 23.8296 102.022 24.2702C100.988 24.7299 99.8383 24.9598 98.5549 24.9598ZM120.086 8.94591C121.484 8.94591 122.691 9.21409 123.725 9.76959C124.759 10.3251 125.564 11.1296 126.119 12.2215C126.694 13.2942 126.981 14.5776 126.981 16.11V24.7491H124.089V20.7456H115.986V24.7491H113.132V16.11C113.132 14.5776 113.419 13.2942 113.975 12.2215C114.55 11.1296 115.354 10.3251 116.408 9.76959C117.461 9.21409 118.687 8.94591 120.086 8.94591ZM124.108 18.3129V15.8418C124.108 14.4052 123.744 13.3133 123.035 12.5854C122.327 11.8384 121.331 11.4744 120.047 11.4744C118.764 11.4744 117.787 11.8384 117.059 12.5854C116.35 13.3133 115.986 14.386 115.986 15.8418V18.3129H124.108Z" fill="#1D1D1B"/>
<path d="M32.6784 16.3973C32.6784 25.3811 25.3993 32.6793 16.3963 32.6793C7.41245 32.6793 0.114258 25.4003 0.114258 16.3973C0.114258 7.41342 7.39329 0.115234 16.3963 0.115234C25.3993 0.115234 32.6784 7.41342 32.6784 16.3973Z" fill="#FFD15C"/>
<path d="M8.52441 23.0636C8.6585 22.9678 8.79259 22.8337 8.86921 22.623C8.94583 22.3931 8.90752 22.2016 8.86921 22.0867C8.86921 22.0867 8.86921 22.0867 8.86921 22.0675L8.88837 21.9143C8.96499 21.9526 9.04161 22.01 9.15654 22.0867C9.1757 22.1058 9.21401 22.125 9.25232 22.1441C9.29063 22.1824 9.34809 22.2016 9.36725 22.2399C9.42472 22.2782 9.50134 22.3357 9.57796 22.374C11.7425 23.7149 13.5431 24.2704 14.9606 24.2129C16.4356 24.1363 17.47 23.4084 18.0063 22.3165C18.5235 21.263 18.5427 19.9796 18.1787 18.7728C17.8148 17.566 17.0485 16.3975 15.9184 15.5738C14.0028 14.2138 12.2406 12.1259 11.3403 10.3444C10.8805 9.44412 10.7081 8.71622 10.7656 8.23733C10.7847 8.00747 10.8614 7.89254 10.938 7.79676C11.0146 7.72014 11.1679 7.62436 11.4552 7.56689C12.049 7.47112 12.7577 7.26041 13.4473 7.03054C13.7155 6.95392 14.0028 6.85815 14.271 6.78152C15.2863 6.47504 16.359 6.22602 17.4891 6.24518C19.692 6.24518 22.2588 7.20294 24.9789 11.1681C28.4651 16.2634 26.5496 21.9526 22.5461 24.9408C20.554 26.4349 18.0446 27.2203 15.4778 26.9138C13.1409 26.6648 10.7273 25.4963 8.52441 23.0636Z" fill="white" stroke="black" stroke-width="1.31067"/>
<path d="M10.5167 7.85342C10.5167 7.85342 16.7422 6.20605 18.1022 6.20605C19.4623 6.20605 24.9024 8.84949 26.4923 13.6766C28.7526 20.5151 22.6229 25.0166 21.9333 24.576C28.5228 19.1359 17.7383 9.06021 12.4323 9.80726C11.7618 9.90304 12.1449 10.4777 12.1449 10.4777L11.9917 11.9527L10.8807 10.1137L10.5167 7.85342Z" fill="black"/>
<path d="M25.5911 11.6084C27.5641 15.0755 27.1426 13.0834 26.7021 17.0485C27.5066 15.746 28.7709 16.7229 29.288 17.2209C29.3838 17.3167 29.5371 17.2592 29.5371 17.1251C29.5179 16.5313 29.3455 15.2671 28.3877 13.907C27.0469 12.0298 25.5911 11.6084 25.5911 11.6084Z" fill="black"/>
<path d="M26.7021 17.0485C27.1426 13.1025 27.5449 15.0755 25.5911 11.6084C25.5911 11.6084 27.0469 12.0298 28.3877 13.907C29.3647 15.2671 29.5179 16.5313 29.5371 17.1251C29.5371 17.2592 29.3838 17.3167 29.288 17.2209C28.7709 16.7037 27.5066 15.7268 26.7021 17.0485ZM26.7021 17.0485C26.7787 16.857 26.8936 16.5696 26.8936 16.5696" stroke="black" stroke-width="0.0736332"/>
<path d="M9.78771 16.5117C8.96403 17.91 7.2592 17.8142 7.29751 19.4808C8.81078 22.8521 8.82994 22.6222 8.82994 22.6222C11.6458 21.0323 10.4965 17.5461 10.075 16.5308C9.99841 16.3967 9.84517 16.3967 9.78771 16.5117Z" fill="black"/>
<path d="M3.409 19.6155C5.01805 19.8262 5.99498 18.4279 7.29754 19.4814C9.02152 22.757 8.82997 22.6229 8.82997 22.6229C5.86089 23.868 3.81127 20.8031 3.25576 19.8454C3.17914 19.7304 3.27492 19.5964 3.409 19.6155Z" fill="black"/>
<path d="M16.9523 17.5272C16.9523 17.5272 18.5805 19.1745 17.7185 19.4427C16.665 18.7914 14.7686 19.2895 13.8491 19.6151C13.6193 19.6917 13.3894 19.481 13.4852 19.2703C13.7917 18.4083 14.577 16.7993 16.0712 16.5885C16.9523 16.3587 16.9523 17.5272 16.9523 17.5272Z" fill="black"/>
<path d="M17.948 9.44312C17.7565 9.1941 17.3925 8.48535 18.5419 8.48535C19.6912 8.48535 21.4343 9.76876 21.7791 10.2476C21.6642 10.535 20.9363 10.6116 20.5723 10.5733C20.2084 10.5541 19.5762 10.4775 19.0974 10.2476C18.6185 9.99863 18.1396 9.69214 17.948 9.44312Z" fill="white"/>
</g>
<defs>
<clipPath id="clip0_2001_2358">
<rect width="127" height="32.7557" fill="white"/>
</clipPath>
</defs>
</svg>
