<svg width="195" height="30" viewBox="0 0 195 30" fill="none" xmlns="http://www.w3.org/2000/svg">
<g clip-path="url(#clip0_2001_2352)">
<path d="M37.2443 23.0813C36.7911 23.0813 36.4673 22.9876 36.2807 22.8038C36.1093 22.6201 36.0217 22.3238 36.0217 21.9226V8.52008C36.0217 8.11883 36.1169 7.82632 36.3036 7.63882C36.4902 7.43632 36.8063 7.33883 37.2443 7.33883H43.0029C45.1966 7.33883 46.8115 7.79258 47.8474 8.70383C48.8833 9.61508 49.3975 10.9726 49.3975 12.7763C49.3975 14.5651 48.8795 15.9188 47.8474 16.8263C46.8267 17.7226 45.2157 18.1688 43.0029 18.1688H40.771V21.9188C40.771 22.3201 40.6758 22.6126 40.4892 22.8001C40.3026 22.9838 39.9789 23.0776 39.5256 23.0776H37.2443V23.0813ZM42.6296 14.8163C43.2733 14.8163 43.7646 14.6476 44.1112 14.3063C44.473 13.9651 44.652 13.4588 44.652 12.7801C44.652 12.0863 44.473 11.5688 44.1112 11.2276C43.7646 10.8863 43.2733 10.7176 42.6296 10.7176H40.771V14.8163H42.6296ZM54.9542 23.4263C53.4803 23.4263 52.2959 22.9651 51.4046 22.0388C50.5287 21.0976 50.0869 19.7776 50.0869 18.0788C50.0869 16.7813 50.3839 15.6488 50.9819 14.6776C51.5951 13.7063 52.4482 12.9563 53.5451 12.4313C54.6572 11.8913 55.9369 11.6213 57.3765 11.6213C58.5686 11.6213 59.6198 11.7526 60.5262 12.0151C61.4517 12.2626 62.2972 12.6263 63.0666 13.1026V22.3613C63.0666 22.6538 63.0132 22.8488 62.9028 22.9388C62.7923 23.0326 62.5752 23.0776 62.2439 23.0776H59.8445C59.6731 23.0776 59.5398 23.0551 59.4446 23.0063C59.3494 22.9463 59.2732 22.8526 59.2085 22.7288L58.9038 22.0351C58.4505 22.5151 57.9021 22.8601 57.2584 23.0776C56.63 23.3101 55.8607 23.4263 54.9542 23.4263ZM56.7176 20.2801C57.327 20.2801 57.8069 20.1338 58.1535 19.8413C58.5001 19.5488 58.6714 19.1326 58.6714 18.5926V14.9813C58.3744 14.8426 57.9973 14.7713 57.5441 14.7713C56.7138 14.7713 56.0473 15.0563 55.5446 15.6263C55.0571 16.1963 54.8171 16.9988 54.8171 18.0338C54.8133 19.5301 55.4456 20.2801 56.7176 20.2801ZM66.3343 23.0813C65.8811 23.0813 65.5574 22.9876 65.3708 22.8038C65.1841 22.6201 65.0889 22.3238 65.0889 21.9226V12.6863C65.0889 12.4088 65.1346 12.2251 65.2298 12.1313C65.3403 12.0226 65.5574 11.9701 65.8887 11.9701H68.311C68.4976 11.9701 68.6385 12.0001 68.7337 12.0638C68.8442 12.1088 68.9051 12.2026 68.9204 12.3413L69.0384 13.0351C69.4764 12.6038 70.0477 12.2626 70.7561 12.0151C71.4759 11.7526 72.2757 11.6213 73.1555 11.6213C74.4238 11.6213 75.4521 11.9776 76.2367 12.6863C77.0212 13.3801 77.4135 14.4151 77.4135 15.7876V21.9226C77.4135 22.3238 77.3183 22.6163 77.1317 22.8038C76.9603 22.9876 76.6442 23.0813 76.191 23.0813H73.9096C73.4564 23.0813 73.125 22.9876 72.9232 22.8038C72.7366 22.6201 72.6414 22.3238 72.6414 21.9226V16.0876C72.6414 15.6263 72.5385 15.2926 72.3367 15.0938C72.131 14.8951 71.8111 14.7938 71.3731 14.7938C70.9046 14.7938 70.5276 14.9176 70.2458 15.1651C69.9792 15.4126 69.8459 15.7501 69.8459 16.1851V21.9263C69.8459 22.3276 69.7506 22.6201 69.564 22.8076C69.3926 22.9913 69.0765 23.0851 68.6233 23.0851H66.3343V23.0813ZM85.7201 23.4263C83.5263 23.4263 81.8315 22.9238 80.6432 21.9226C79.4511 20.9213 78.857 19.4626 78.857 17.5463C78.857 16.3726 79.1312 15.3376 79.6796 14.4451C80.2281 13.5488 81.0203 12.8551 82.0562 12.3601C83.1074 11.8651 84.3452 11.6176 85.7696 11.6176C86.8512 11.6176 87.7615 11.7188 88.4965 11.9176C89.2506 12.1201 89.9133 12.4276 90.496 12.8438C90.6674 12.9526 90.755 13.0913 90.755 13.2601C90.755 13.3838 90.6941 13.5451 90.5684 13.7476L89.6048 15.3901C89.4944 15.6076 89.3611 15.7126 89.2049 15.7126C89.1097 15.7126 88.9612 15.6526 88.7593 15.5288C88.3366 15.2663 87.9367 15.0751 87.5596 14.9513C87.1978 14.8276 86.7446 14.7676 86.1961 14.7676C85.4116 14.7676 84.7794 15.0151 84.2919 15.5101C83.8234 16.0051 83.5873 16.6838 83.5873 17.5463C83.5873 18.4276 83.831 19.1063 84.3147 19.5826C84.8022 20.0438 85.4687 20.2763 86.3142 20.2763C86.8169 20.2763 87.2702 20.2051 87.6777 20.0663C88.0852 19.9276 88.5003 19.7363 88.9231 19.4888C89.144 19.3651 89.3002 19.3051 89.3916 19.3051C89.5325 19.3051 89.6582 19.4138 89.7686 19.6276L90.8274 21.4088C90.9074 21.5626 90.9455 21.6863 90.9455 21.7801C90.9455 21.9188 90.8503 22.0501 90.6636 22.1738C90.0047 22.5901 89.2849 22.8976 88.5003 23.1001C87.7272 23.3176 86.8017 23.4263 85.7201 23.4263ZM96.9021 23.4263C95.4282 23.4263 94.2437 22.9651 93.3525 22.0388C92.4765 21.0976 92.0347 19.7776 92.0347 18.0788C92.0347 16.7813 92.3318 15.6488 92.9297 14.6776C93.5391 13.7063 94.396 12.9563 95.4929 12.4313C96.605 11.8913 97.8847 11.6213 99.3244 11.6213C100.516 11.6213 101.568 11.7526 102.474 12.0151C103.4 12.2626 104.245 12.6263 105.014 13.1026V22.3613C105.014 22.6538 104.961 22.8488 104.851 22.9388C104.74 23.0326 104.523 23.0776 104.192 23.0776H101.792C101.621 23.0776 101.488 23.0551 101.392 23.0063C101.297 22.9463 101.221 22.8526 101.156 22.7288L100.852 22.0351C100.398 22.5151 99.85 22.8601 99.2063 23.0776C98.5779 23.3101 97.8124 23.4263 96.9021 23.4263ZM98.6655 20.2801C99.2787 20.2801 99.7547 20.1338 100.101 19.8413C100.448 19.5488 100.619 19.1326 100.619 18.5926V14.9813C100.322 14.8426 99.9452 14.7713 99.492 14.7713C98.6617 14.7713 97.9952 15.0563 97.4924 15.6263C97.0049 16.1963 96.765 16.9988 96.765 18.0338C96.7612 19.5301 97.3934 20.2801 98.6655 20.2801ZM119.78 22.2001C119.891 22.3238 119.944 22.4626 119.944 22.6163C119.944 22.7551 119.898 22.8713 119.803 22.9651C119.708 23.0438 119.582 23.0813 119.426 23.0813H115.781C115.56 23.0813 115.397 23.0663 115.286 23.0363C115.191 22.9913 115.092 22.9051 114.981 22.7813L111.782 18.4988V21.9263C111.782 22.3276 111.687 22.6201 111.5 22.8076C111.314 22.9913 110.99 23.0851 110.537 23.0851H108.256C107.802 23.0851 107.479 22.9913 107.292 22.8076C107.121 22.6238 107.033 22.3276 107.033 21.9263V8.52382C107.033 8.12257 107.128 7.83008 107.315 7.64258C107.501 7.44008 107.818 7.34258 108.256 7.34258H110.537C110.99 7.34258 111.314 7.44383 111.5 7.64258C111.687 7.82633 111.782 8.12257 111.782 8.52382V16.2788L114.886 12.2963C114.981 12.1726 115.081 12.0863 115.191 12.0413C115.301 11.9963 115.465 11.9701 115.686 11.9701H119.331C119.487 11.9701 119.605 12.0151 119.685 12.1088C119.78 12.1876 119.826 12.2926 119.826 12.4313C119.826 12.5851 119.773 12.7238 119.662 12.8476L115.64 17.3851L119.78 22.2001ZM127.417 23.4263C126.099 23.4263 124.926 23.2088 123.89 22.7776C122.873 22.3463 122.065 21.6976 121.468 20.8313C120.873 19.9688 120.573 18.9113 120.573 17.6588C120.573 15.6976 121.136 14.2013 122.264 13.1663C123.391 12.1313 125.013 11.6138 127.131 11.6138C129.199 11.6138 130.768 12.1238 131.835 13.1401C132.916 14.1451 133.457 15.5401 133.457 17.3288C133.457 18.1013 133.11 18.4876 132.421 18.4876H125.04C125.04 19.1513 125.291 19.6613 125.794 20.0138C126.312 20.3701 127.089 20.5463 128.121 20.5463C128.765 20.5463 129.298 20.4938 129.721 20.3851C130.159 20.2613 130.597 20.0851 131.039 19.8526C131.225 19.7738 131.351 19.7363 131.416 19.7363C131.556 19.7363 131.675 19.8301 131.77 20.0138L132.57 21.4951C132.65 21.6488 132.688 21.7651 132.688 21.8438C132.688 21.9826 132.592 22.1138 132.406 22.2376C131.762 22.6538 131.035 22.9538 130.22 23.1413C129.401 23.3363 128.468 23.4263 127.417 23.4263ZM129.226 16.2038C129.226 15.6188 129.054 15.1613 128.708 14.8388C128.361 14.5163 127.847 14.3513 127.158 14.3513C126.468 14.3513 125.943 14.5201 125.581 14.8613C125.219 15.1838 125.04 15.6338 125.04 16.2038H129.226ZM141.516 23.4263C140.198 23.4263 138.953 23.2951 137.776 23.0326C136.599 22.7551 135.651 22.3688 134.931 21.8738C134.664 21.7051 134.531 21.5251 134.531 21.3413C134.531 21.2176 134.577 21.0863 134.672 20.9476L135.826 19.1401C135.952 18.9563 136.077 18.8626 136.203 18.8626C136.283 18.8626 136.416 18.9151 136.603 19.0238C137.182 19.3463 137.841 19.6088 138.58 19.8113C139.315 20.0138 140.046 20.1113 140.766 20.1113C141.501 20.1113 142.042 20.0026 142.388 19.7888C142.75 19.5713 142.929 19.2263 142.929 18.7463C142.929 18.2851 142.735 17.9213 142.342 17.6588C141.965 17.3963 141.253 17.0663 140.202 16.6651C138.618 16.0801 137.38 15.4238 136.489 14.6963C135.613 13.9538 135.171 12.9526 135.171 11.6851C135.171 10.1588 135.727 8.99257 136.839 8.19007C137.951 7.38757 139.433 6.98633 141.284 6.98633C142.567 6.98633 143.668 7.10258 144.574 7.33508C145.5 7.55258 146.284 7.89008 146.924 8.35508C147.191 8.55758 147.324 8.74132 147.324 8.91007C147.324 9.01882 147.278 9.14258 147.183 9.28133L146.033 11.0888C145.892 11.2726 145.766 11.3663 145.656 11.3663C145.576 11.3663 145.443 11.3138 145.256 11.2051C144.346 10.6201 143.264 10.3238 142.011 10.3238C141.337 10.3238 140.819 10.4326 140.461 10.6463C140.099 10.8638 139.92 11.2163 139.92 11.7113C139.92 12.0526 140.015 12.3301 140.202 12.5438C140.389 12.7613 140.64 12.9526 140.956 13.1213C141.284 13.2751 141.786 13.4776 142.46 13.7251L142.906 13.8863C144.068 14.3326 144.974 14.7676 145.633 15.1838C146.307 15.5851 146.818 16.0876 147.16 16.6876C147.507 17.2726 147.678 18.0151 147.678 18.9113C147.678 20.2838 147.153 21.3788 146.102 22.2001C145.069 23.0176 143.538 23.4263 141.516 23.4263ZM152.671 23.0813C152.435 23.0813 152.256 23.0438 152.131 22.9651C152.005 22.8863 151.91 22.7326 151.849 22.5038L148.817 12.5026C148.787 12.4088 148.771 12.3413 148.771 12.2926C148.771 12.0751 148.928 11.9701 149.24 11.9701H152.344C152.549 11.9701 152.698 12.0076 152.789 12.0863C152.885 12.1463 152.946 12.2551 152.976 12.4088L154.248 17.6626L155.848 13.4251C155.928 13.2413 156.004 13.1176 156.084 13.0538C156.179 12.9751 156.335 12.9376 156.556 12.9376H158.038C158.259 12.9376 158.407 12.9751 158.483 13.0538C158.578 13.1138 158.662 13.2376 158.742 13.4251L160.315 17.6626L161.61 12.4088C161.656 12.2551 161.717 12.1463 161.797 12.0863C161.873 12.0076 162.018 11.9701 162.219 11.9701H165.346C165.659 11.9701 165.815 12.0788 165.815 12.2926C165.815 12.3376 165.8 12.4088 165.769 12.5026L162.711 22.5001C162.65 22.7326 162.555 22.8863 162.429 22.9613C162.319 23.0401 162.147 23.0776 161.911 23.0776H159.607C159.386 23.0776 159.222 23.0401 159.112 22.9613C159.001 22.8676 158.91 22.7138 158.83 22.5001L157.28 18.3113L155.73 22.5001C155.669 22.7176 155.574 22.8713 155.448 22.9613C155.337 23.0401 155.174 23.0776 154.956 23.0776H152.671V23.0813ZM171.775 23.4263C170.301 23.4263 169.121 22.9651 168.226 22.0388C167.35 21.0976 166.908 19.7776 166.908 18.0788C166.908 16.7813 167.205 15.6488 167.803 14.6776C168.412 13.7063 169.269 12.9563 170.366 12.4313C171.478 11.8913 172.758 11.6213 174.198 11.6213C175.39 11.6213 176.441 11.7526 177.347 12.0151C178.273 12.2626 179.118 12.6263 179.888 13.1026V22.3613C179.888 22.6538 179.834 22.8488 179.724 22.9388C179.613 23.0326 179.396 23.0776 179.065 23.0776H176.665C176.494 23.0776 176.361 23.0551 176.266 23.0063C176.17 22.9463 176.094 22.8526 176.029 22.7288L175.725 22.0351C175.272 22.5151 174.719 22.8601 174.079 23.0776C173.451 23.3101 172.686 23.4263 171.775 23.4263ZM173.539 20.2801C174.148 20.2801 174.628 20.1338 174.974 19.8413C175.321 19.5488 175.492 19.1326 175.492 18.5926V14.9813C175.192 14.8426 174.818 14.7713 174.365 14.7713C173.535 14.7713 172.868 15.0563 172.366 15.6263C171.882 16.1963 171.638 16.9988 171.638 18.0338C171.634 19.5301 172.27 20.2801 173.539 20.2801ZM183.136 27.7576C182.683 27.7576 182.359 27.6638 182.173 27.4801C182.001 27.2963 181.914 27.0001 181.914 26.5988V13.3351C182.618 12.8401 183.506 12.4313 184.568 12.1088C185.635 11.7863 186.747 11.6213 187.908 11.6213C192.643 11.6213 195.008 13.5976 195.008 17.5463C195.008 19.3351 194.505 20.7638 193.503 21.8288C192.498 22.8938 191.081 23.4263 189.249 23.4263C188.731 23.4263 188.228 23.3663 187.745 23.2426C187.276 23.1188 186.884 22.9501 186.572 22.7326V26.5988C186.572 27.0001 186.476 27.2926 186.29 27.4801C186.103 27.6638 185.779 27.7576 185.326 27.7576C185.322 27.7576 183.136 27.7576 183.136 27.7576ZM188.236 20.3026C188.91 20.3026 189.413 20.0551 189.74 19.5601C190.087 19.0501 190.258 18.3713 190.258 17.5238C190.258 16.5226 190.057 15.8176 189.649 15.4163C189.257 15.0001 188.644 14.7901 187.813 14.7901C187.28 14.7901 186.857 14.8613 186.545 15.0001V18.6826C186.545 19.2076 186.694 19.6088 186.991 19.8863C187.291 20.1638 187.707 20.3026 188.236 20.3026Z" fill="black"/>
<path fill-rule="evenodd" clip-rule="evenodd" d="M14.4424 29.9178C9.99011 29.9141 6.39861 28.8604 3.89255 26.9704C1.35603 25.0579 0.0115967 22.3429 0.0115967 19.2716C0.0115967 16.3129 1.35603 14.1791 2.87566 12.7354C4.06775 11.6066 5.38171 10.8791 6.29578 10.4628C6.09011 9.8366 5.83113 9.0191 5.5988 8.17535C5.29031 7.04285 4.98562 5.71535 4.98562 4.7441C4.98562 3.59285 5.2408 2.43785 5.92634 1.53785C6.65378 0.589101 7.74685 0.0791016 9.06082 0.0791016C10.0891 0.0791016 10.9613 0.4541 11.643 1.10285C12.2943 1.7216 12.7323 2.54285 13.0294 3.4016C13.555 4.9091 13.7606 6.7991 13.8177 8.6891H15.0784C15.1355 6.7991 15.3412 4.9091 15.8706 3.4016C16.1715 2.54285 16.6056 1.7216 17.2569 1.10285C17.9386 0.4541 18.8146 0.0791016 19.8391 0.0791016C21.1531 0.0791016 22.2462 0.589101 22.9736 1.53785C23.6592 2.43785 23.9143 3.59285 23.9143 4.7441C23.9143 5.71535 23.6096 7.04285 23.3011 8.17535C23.0688 9.0191 22.8136 9.84035 22.6042 10.4628C23.5182 10.8791 24.8322 11.6029 26.0243 12.7354C27.5439 14.1791 28.8884 16.3129 28.8884 19.2716C28.8884 22.3429 27.5439 25.0579 25.0074 26.9704C22.5013 28.8604 18.9136 29.9141 14.4576 29.9178H14.4424Z" fill="#633001"/>
<path d="M9.06104 1.17383C7.13389 1.17383 6.24648 2.60258 6.24648 4.57883C6.24648 6.15008 7.27861 9.29633 7.70137 10.5226C7.79658 10.8001 7.64805 11.1001 7.37383 11.2051C5.83135 11.8088 1.27246 14.0288 1.27246 19.1063C1.27246 24.4538 5.90371 28.4888 14.4426 28.4926H14.454H14.4654C23.0043 28.4851 27.6355 24.4538 27.6355 19.1063C27.6355 14.0288 23.0805 11.8126 21.5342 11.2051C21.26 11.1001 21.1114 10.7963 21.2066 10.5226C21.6294 9.29633 22.6615 6.15008 22.6615 4.57883C22.6615 2.60258 21.7741 1.17383 19.847 1.17383C17.0743 1.17383 16.3812 5.08132 16.3316 9.27382C16.3278 9.55507 16.0993 9.78008 15.8213 9.78008H13.0905C12.8087 9.78008 12.5802 9.55132 12.5764 9.27382C12.523 5.08132 11.8337 1.17383 9.06104 1.17383Z" fill="#D1884F"/>
<path d="M14.4616 26.7861C8.18887 26.7861 1.28389 23.4448 1.27246 19.1211V19.1399C1.27246 24.4911 5.91133 28.5298 14.4616 28.5298C23.0119 28.5298 27.6508 24.4949 27.6508 19.1399V19.1211C27.6394 23.4448 20.7344 26.7861 14.4616 26.7861Z" fill="#FEDC90"/>
<path d="M10.9763 17.7942C10.9763 19.253 10.2831 20.0142 9.4262 20.0142C8.56926 20.0142 7.8761 19.253 7.8761 17.7942C7.8761 16.3355 8.56926 15.5742 9.4262 15.5742C10.2831 15.5705 10.9763 16.3317 10.9763 17.7942ZM21.0462 17.7942C21.0462 19.253 20.3531 20.0142 19.4961 20.0142C18.6392 20.0142 17.946 19.253 17.946 17.7942C17.946 16.3355 18.6392 15.5742 19.4961 15.5742C20.3531 15.5705 21.0462 16.3317 21.0462 17.7942Z" fill="#633001"/>
</g>
<defs>
<clipPath id="clip0_2001_2352">
<rect width="195" height="30" fill="white"/>
</clipPath>
</defs>
</svg>
