<svg width="163" height="46" viewBox="0 0 163 46" fill="none" xmlns="http://www.w3.org/2000/svg">
<g clip-path="url(#clip0_2001_2345)">
<path fill-rule="evenodd" clip-rule="evenodd" d="M56.0259 28.1499L54.0165 24.5878H51.0744V28.1499H49.3438V17.4542H54.5549C55.1902 17.4491 55.8146 17.6229 56.3602 17.9567C56.9059 18.2907 57.3517 18.7719 57.6493 19.3479C57.9468 19.9239 58.0845 20.5726 58.0475 21.2234C58.0105 21.8743 57.8002 22.5022 57.4394 23.0388C57.0626 23.6079 56.531 24.0506 55.9106 24.3117L58.0547 28.1499H56.0259ZM54.5549 19.2697H51.0744V22.8217H54.5549C54.7824 22.8216 55.0073 22.7733 55.2158 22.68C55.4242 22.5867 55.6116 22.4501 55.7664 22.2791C56.006 22.0294 56.1687 21.713 56.2343 21.3691C56.2999 21.0252 56.2655 20.6691 56.1354 20.3451C56.0052 20.0212 55.7851 19.7436 55.5023 19.5471C55.2196 19.3507 54.8867 19.2439 54.5454 19.2401L54.5549 19.2697ZM73.0828 17.4542L67.8619 28.1499H69.8042L73.0828 21.4502L76.3519 28.1499H78.294L73.0828 17.4542ZM95.0814 17.4542H92.87L89.899 21.4009L86.9377 17.4542H84.7167L89.0722 23.1572V28.1499H90.8028V23.0684L95.0814 17.4542ZM103.946 17.4542H107.417C108.796 17.4645 110.116 18.0313 111.091 19.032C112.066 20.0326 112.618 21.3869 112.628 22.8021C112.621 24.218 112.069 25.5736 111.094 26.5749C110.118 27.5762 108.797 28.1421 107.417 28.1499H103.946V17.4542ZM107.417 26.3343C108.337 26.3318 109.218 25.9556 109.869 25.2882C110.519 24.6207 110.885 23.7163 110.888 22.7724C110.878 21.8309 110.509 20.9308 109.86 20.2651C109.212 19.5993 108.335 19.2208 107.417 19.2104H105.667V26.3343H107.417ZM124.195 17.4542H122.464V28.1499H124.195V17.4542ZM142.714 23.6801C142.723 24.2685 142.615 24.8525 142.394 25.3959C142.174 25.9391 141.848 26.4301 141.434 26.8375C140.827 27.4609 140.054 27.8852 139.212 28.0568C138.368 28.2282 137.496 28.1393 136.703 27.8011C135.91 27.463 135.233 26.8908 134.757 26.1571C134.281 25.4235 134.029 24.5614 134.031 23.6801V17.4542H135.762V23.6801C135.762 24.3893 136.036 25.0694 136.525 25.571C137.013 26.0724 137.676 26.3541 138.367 26.3541C139.058 26.3541 139.721 26.0724 140.21 25.571C140.698 25.0694 140.972 24.3893 140.972 23.6801V17.4542H142.714V23.6801ZM154.28 28.1499V21.7562L157.769 25.3279L161.241 21.7562V28.1499H163V17.4542L157.769 22.8021L152.559 17.4542V28.1499H154.28Z" fill="#1A3853"/>
<path d="M36.4882 17.119V33.0244L19.2488 43.2365L1.99989 33.0244V12.5901L19.2488 2.36804L32.4981 10.2221L34.498 9.03804L19.2488 0L0 11.4061V34.2084L19.2488 45.6144L38.4977 34.2084V15.935L36.4882 17.119Z" fill="url(#paint0_linear_2001_2345)"/>
<path d="M14.4225 33.0344H11.5381V23.1083H21.153C22.0626 23.0979 22.9317 22.7205 23.5723 22.0575C24.2129 21.3947 24.5734 20.4996 24.5758 19.566C24.581 19.1044 24.4942 18.6465 24.3206 18.2207C24.1469 17.7947 23.8903 17.4098 23.5662 17.0895C23.2527 16.7589 22.8774 16.4967 22.4627 16.3187C22.048 16.1405 21.6024 16.0503 21.153 16.0534H11.5381V13.0342H21.1625C22.8475 13.0445 24.4606 13.736 25.6522 14.9587C26.8436 16.1815 27.5174 17.8369 27.5275 19.566C27.5378 20.8897 27.1446 22.1834 26.4026 23.266C25.7198 24.302 24.7576 25.1112 23.6335 25.5946C22.5205 25.9569 21.359 26.1367 20.1914 26.1275H14.4225V33.0344Z" fill="url(#paint1_linear_2001_2345)"/>
<path d="M27.4602 32.7875H24.0949L21.499 28.1402C22.5261 28.0757 23.5391 27.8631 24.5084 27.5088L27.4602 32.7875Z" fill="url(#paint2_linear_2001_2345)"/>
<path d="M34.4788 13.8131L36.469 14.9479L38.4594 13.8131V11.4155L36.469 10.2314L34.4788 11.4155V13.8131Z" fill="url(#paint3_linear_2001_2345)"/>
</g>
<defs>
<linearGradient id="paint0_linear_2001_2345" x1="38.4637" y1="11.4186" x2="-2.64029" y2="27.4361" gradientUnits="userSpaceOnUse">
<stop stop-color="#C200FB"/>
<stop offset="0.489658" stop-color="#3772FF"/>
<stop offset="0.489758" stop-color="#3773FE"/>
<stop offset="1" stop-color="#5AC4BE"/>
</linearGradient>
<linearGradient id="paint1_linear_2001_2345" x1="38.464" y1="11.4187" x2="-2.63999" y2="27.4362" gradientUnits="userSpaceOnUse">
<stop stop-color="#C200FB"/>
<stop offset="0.489658" stop-color="#3772FF"/>
<stop offset="0.489758" stop-color="#3773FE"/>
<stop offset="1" stop-color="#5AC4BE"/>
</linearGradient>
<linearGradient id="paint2_linear_2001_2345" x1="38.4639" y1="11.4186" x2="-2.64002" y2="27.4361" gradientUnits="userSpaceOnUse">
<stop stop-color="#C200FB"/>
<stop offset="0.489658" stop-color="#3772FF"/>
<stop offset="0.489758" stop-color="#3773FE"/>
<stop offset="1" stop-color="#5AC4BE"/>
</linearGradient>
<linearGradient id="paint3_linear_2001_2345" x1="38.4637" y1="11.4181" x2="-2.64024" y2="27.4356" gradientUnits="userSpaceOnUse">
<stop stop-color="#C200FB"/>
<stop offset="0.489658" stop-color="#3772FF"/>
<stop offset="0.489758" stop-color="#3773FE"/>
<stop offset="1" stop-color="#5AC4BE"/>
</linearGradient>
<clipPath id="clip0_2001_2345">
<rect width="163" height="46" fill="white"/>
</clipPath>
</defs>
</svg>
