<svg width="179" height="13" viewBox="0 0 179 13" fill="none" xmlns="http://www.w3.org/2000/svg">
<g clip-path="url(#clip0_2001_2324)">
<path d="M17.3038 6.21145C16.5295 5.48923 15.636 5.11367 14.5637 5.11367H3.96075C3.75226 5.11367 3.60334 5.05589 3.45442 4.91145C3.30551 4.767 3.24594 4.62256 3.24594 4.42033V3.58256C3.24594 3.40922 3.30551 3.23589 3.45442 3.12033C3.60334 2.97589 3.75226 2.91812 3.96075 2.91812H17.6315C17.6612 2.91812 17.691 2.91812 17.7208 2.88923C17.7506 2.86034 17.7506 2.83145 17.7506 2.83145V0.347008C17.7506 0.318119 17.7506 0.289225 17.7208 0.260336C17.691 0.231447 17.6612 0.231445 17.6315 0.231445H3.96075C2.88853 0.231445 1.96524 0.607006 1.22065 1.32923C0.476056 2.05145 0.0888672 2.91812 0.0888672 3.95812V4.13145C0.0888672 5.17144 0.476056 6.03811 1.22065 6.76034C1.96524 7.48256 2.88853 7.85812 3.96075 7.85812H14.5637C14.7424 7.85812 14.9211 7.91589 15.0701 8.06034C15.219 8.17589 15.2786 8.34923 15.2786 8.55145V9.38923C15.2786 9.59145 15.219 9.7359 15.0701 9.88034C14.9211 9.9959 14.7722 10.0826 14.5637 10.0826H0.863243C0.83346 10.0826 0.803676 10.0826 0.803676 10.1114C0.773893 10.1403 0.773892 10.1692 0.773892 10.1981V12.6826C0.773892 12.7114 0.773893 12.7403 0.803676 12.7403C0.83346 12.7692 0.863243 12.7692 0.863243 12.7692H14.5637C15.636 12.7692 16.5592 12.3937 17.3038 11.6714C18.0782 10.9492 18.4356 10.0826 18.4356 9.04256V8.86923C18.4356 7.80034 18.0782 6.93367 17.3038 6.21145ZM40.3266 0.260336H37.3483C37.3185 0.260336 37.2887 0.260338 37.2887 0.289227C37.2589 0.318116 37.2589 0.318112 37.2589 0.37589V3.55367C37.2589 3.81367 37.11 4.04478 36.8122 4.18923L30.8852 6.55812L24.9583 4.18923C24.6604 4.04478 24.5115 3.84256 24.5115 3.55367V0.37589C24.5115 0.347001 24.5115 0.318116 24.4817 0.289227C24.4519 0.260338 24.4519 0.260336 24.3924 0.260336H21.414C21.3842 0.260336 21.3544 0.260338 21.3544 0.289227C21.3246 0.318116 21.3246 0.318112 21.3246 0.37589V3.987C21.3246 4.53589 21.4736 5.027 21.8012 5.46034C22.099 5.92256 22.516 6.24033 23.0521 6.44256L29.2769 8.98478V12.5959C29.2769 12.6248 29.2769 12.6537 29.3067 12.6826C29.3365 12.7114 29.3662 12.7114 29.396 12.7114H32.3744C32.4042 12.7114 32.434 12.7114 32.434 12.6826C32.4637 12.6537 32.4637 12.6248 32.4637 12.5959V8.98478L38.6885 6.47145C39.2246 6.24034 39.6416 5.92256 39.9394 5.46034C40.2373 5.027 40.416 4.53589 40.416 3.987V0.347008C40.416 0.318119 40.416 0.289225 40.3862 0.260336C40.3862 0.260336 40.3564 0.260336 40.3266 0.260336ZM62.3666 0.260336H59.3882C59.3584 0.260336 59.3286 0.260338 59.2989 0.289227C59.2691 0.318116 59.2691 0.347008 59.2691 0.347008V10.0248H58.0182C57.7799 10.0248 57.6012 9.93812 57.4225 9.7359L51.6742 1.58923C51.0488 0.751449 50.2148 0.318116 49.1128 0.289227H44.1687C44.139 0.289227 44.1092 0.289228 44.0794 0.318117C44.0496 0.347006 44.0496 0.37589 44.0496 0.37589V12.6248C44.0496 12.6537 44.0496 12.6826 44.0794 12.6826C44.1092 12.7114 44.139 12.7114 44.1687 12.7114H47.1471C47.1769 12.7114 47.2067 12.7114 47.2067 12.6826C47.2365 12.6537 47.2365 12.6248 47.2365 12.6248V2.94701H48.4874C48.7256 2.94701 48.9043 3.06256 49.083 3.26478L54.8313 11.4114C55.4568 12.2492 56.2907 12.6826 57.3927 12.7114H62.3368C62.3666 12.7114 62.3964 12.7114 62.4261 12.6826C62.4559 12.6537 62.4559 12.6248 62.4559 12.6248V0.37589C62.4559 0.347001 62.4559 0.318117 62.4261 0.318117C62.4261 0.260339 62.3964 0.260336 62.3666 0.260336ZM83.8108 0.260336H65.6428C65.613 0.260336 65.5832 0.260338 65.5534 0.289227C65.5236 0.318116 65.5236 0.347008 65.5236 0.347008V2.83145C65.5236 2.86033 65.5236 2.88923 65.5534 2.88923C65.5832 2.91812 65.5832 2.91812 65.6428 2.91812H73.1483V12.5959C73.1483 12.6248 73.1483 12.6537 73.1781 12.6537C73.2078 12.6826 73.2078 12.6826 73.2674 12.6826H76.2458C76.2756 12.6826 76.3053 12.6826 76.3351 12.6537C76.3649 12.6248 76.3649 12.5959 76.3649 12.5959V2.91812H83.8704C83.9002 2.91812 83.93 2.91812 83.9597 2.88923C83.9895 2.86034 83.9895 2.83145 83.9895 2.83145V0.347008C83.9895 0.318119 83.9895 0.289227 83.9597 0.289227C83.8704 0.260338 83.8406 0.260336 83.8108 0.260336ZM105.851 0.260336H102.872C102.843 0.260336 102.813 0.260338 102.813 0.289227C102.783 0.318116 102.783 0.347008 102.783 0.347008V5.14256H90.7504V0.347008C90.7504 0.318119 90.7504 0.289227 90.7206 0.289227C90.6909 0.260338 90.6611 0.260336 90.6313 0.260336H87.6529C87.6231 0.260336 87.5934 0.260338 87.5934 0.289227C87.5636 0.318116 87.5636 0.347008 87.5636 0.347008V12.5959C87.5636 12.6248 87.5636 12.6537 87.5934 12.6537C87.6231 12.6826 87.6529 12.6826 87.6529 12.6826H90.6313C90.6611 12.6826 90.6909 12.6826 90.7206 12.6537C90.7504 12.6248 90.7504 12.5959 90.7504 12.5959V7.80034H102.783V12.5959C102.783 12.6248 102.783 12.6537 102.813 12.6537C102.843 12.6826 102.872 12.6826 102.872 12.6826H105.851C105.881 12.6826 105.91 12.6826 105.94 12.6537C105.97 12.6248 105.97 12.5959 105.97 12.5959V0.347008C105.97 0.318119 105.97 0.289227 105.94 0.289227C105.91 0.260338 105.881 0.260336 105.851 0.260336ZM127.801 0.260336H113.416C112.344 0.260336 111.42 0.607008 110.676 1.35812C109.931 2.10923 109.544 2.947 109.544 3.987V9.04256C109.544 10.0826 109.931 10.9492 110.676 11.6714C111.45 12.3937 112.344 12.7692 113.416 12.7692H127.801C127.831 12.7692 127.861 12.7692 127.861 12.7403C127.891 12.7114 127.891 12.6826 127.891 12.6826V10.1114C127.891 10.0826 127.891 10.0537 127.861 10.0248C127.831 9.9959 127.801 9.99589 127.801 9.99589H113.416C113.207 9.99589 113.058 9.93811 112.91 9.79367C112.761 9.64922 112.701 9.50478 112.701 9.33144V7.80034H127.772C127.801 7.80034 127.831 7.80034 127.861 7.77145C127.891 7.74256 127.891 7.71367 127.891 7.71367V5.22923C127.891 5.20034 127.891 5.17144 127.861 5.14256C127.831 5.11367 127.831 5.11367 127.772 5.11367H112.671V3.58256C112.671 3.40922 112.731 3.23589 112.88 3.12033C113.029 2.97589 113.178 2.91812 113.386 2.91812H127.772C127.801 2.91812 127.831 2.91812 127.831 2.88923C127.861 2.86034 127.861 2.83145 127.861 2.83145V0.347008C127.861 0.318119 127.861 0.289227 127.831 0.289227C127.831 0.260338 127.831 0.260336 127.801 0.260336ZM149.722 0.260336H131.554C131.524 0.260336 131.495 0.260338 131.465 0.289227C131.435 0.318116 131.435 0.347008 131.435 0.347008V2.83145C131.435 2.86033 131.435 2.88923 131.465 2.88923C131.495 2.91812 131.495 2.91812 131.554 2.91812H139.06V12.5959C139.06 12.6248 139.06 12.6537 139.089 12.6537C139.119 12.6826 139.119 12.6826 139.179 12.6826H142.157C142.187 12.6826 142.217 12.6826 142.246 12.6537C142.276 12.6248 142.276 12.5959 142.276 12.5959V2.91812H149.782C149.812 2.91812 149.841 2.91812 149.871 2.88923C149.901 2.86034 149.901 2.83145 149.901 2.83145V0.347008C149.901 0.318119 149.901 0.289227 149.871 0.289227C149.782 0.260338 149.752 0.260336 149.722 0.260336ZM156.632 0.260336C156.602 0.231447 156.602 0.231445 156.543 0.231445H153.564C153.534 0.231445 153.505 0.231447 153.475 0.260336C153.445 0.289225 153.445 0.28923 153.445 0.347008V12.5959C153.445 12.6248 153.445 12.6537 153.475 12.6537C153.505 12.6826 153.505 12.6826 153.564 12.6826H156.543C156.572 12.6826 156.602 12.6826 156.632 12.6537C156.662 12.6248 156.662 12.5959 156.662 12.5959V0.347008C156.662 0.318119 156.632 0.289225 156.632 0.260336ZM164.822 3.26478C164.703 3.12033 164.525 3.06256 164.346 3.06256H160.504C160.474 3.06256 160.444 3.06256 160.414 3.03367C160.385 3.00478 160.385 2.97589 160.385 2.97589V0.491452C160.385 0.462563 160.385 0.433671 160.414 0.433671C160.444 0.404782 160.474 0.40478 160.504 0.40478H164.584C165.597 0.40478 166.49 0.809228 167.235 1.61812L168.218 2.77367L166.282 5.027L164.822 3.26478ZM171.941 1.56034C172.685 0.751447 173.579 0.37589 174.621 0.37589H178.672C178.702 0.37589 178.731 0.375892 178.761 0.40478C178.791 0.433669 178.791 0.433675 178.791 0.491452V2.97589C178.791 3.00478 178.791 3.03367 178.761 3.03367C178.731 3.06256 178.731 3.06256 178.672 3.06256H174.83C174.651 3.06256 174.472 3.12033 174.353 3.26478L171.524 6.587L174.383 9.93811C174.502 10.0826 174.651 10.1403 174.86 10.1403H178.702C178.731 10.1403 178.761 10.1403 178.791 10.1692C178.821 10.1981 178.821 10.227 178.821 10.2559V12.7403C178.821 12.7692 178.821 12.7981 178.791 12.7981C178.761 12.827 178.761 12.827 178.702 12.827H174.651C173.609 12.827 172.715 12.4226 172 11.6137L169.647 8.84034L167.295 11.6137C166.55 12.4226 165.656 12.827 164.614 12.827H160.563C160.534 12.827 160.504 12.827 160.474 12.7981C160.444 12.7692 160.444 12.7403 160.444 12.7114V10.227C160.444 10.1981 160.444 10.1692 160.474 10.1692C160.504 10.1403 160.504 10.1403 160.563 10.1403H164.406C164.584 10.1403 164.733 10.0826 164.882 9.93811L167.682 6.67367L171.941 1.56034Z" fill="#00D1FF"/>
</g>
<defs>
<clipPath id="clip0_2001_2324">
<rect width="179" height="13" fill="white"/>
</clipPath>
</defs>
</svg>
