<svg width="151" height="38" viewBox="0 0 151 38" fill="none" xmlns="http://www.w3.org/2000/svg">
<path fill-rule="evenodd" clip-rule="evenodd" d="M0.590355 0.745302C4.35825 5.39994 8.4953 11.2476 9.16445 12.1934C9.20013 12.2438 9.22595 12.2803 9.24133 12.302C9.59803 12.8038 9.8925 13.1768 10.1161 13.4601C10.6126 14.089 10.7599 14.2756 10.4637 14.447C10.2247 14.5853 9.97825 14.6308 9.73229 14.6308C9.4541 14.6308 9.14067 14.4945 8.91246 14.2741C8.75115 14.1184 7.64739 12.4868 6.1444 10.1132C4.99441 8.29692 4.032 6.79027 4.00575 6.76505C3.94505 6.7067 3.94609 6.70868 6.02715 10.4986C7.33388 12.8784 8.22773 14.6371 8.22773 14.7496C8.22773 14.9784 8.16637 15.0987 7.88899 15.4137C7.4266 15.9388 7.21988 16.5287 7.07067 17.7496C6.90339 19.1183 6.43301 20.0852 5.12945 21.7398C4.36639 22.7085 4.24153 22.886 4.04899 23.2764C3.80648 23.7681 3.73978 24.0434 3.71275 24.6642C3.68418 25.3207 3.73982 25.7447 3.93685 26.3722C4.10934 26.9216 4.28938 27.2845 4.74965 28.0101C5.14687 28.6362 5.37559 29.1015 5.37559 29.2836C5.37559 29.4285 5.40276 29.4286 6.01827 29.2872C7.49129 28.9486 8.68736 28.3532 9.36006 27.6235C9.77638 27.1717 9.87413 26.9224 9.87729 26.3034C9.87938 25.8986 9.86538 25.8139 9.75787 25.581C9.58285 25.2018 9.26422 24.8867 8.56197 24.3981C7.64181 23.7578 7.24881 23.2424 7.14025 22.5335C7.0512 21.952 7.15451 21.5416 7.66355 20.4557C8.19041 19.3317 8.32098 18.8528 8.40931 17.7197C8.46634 16.9877 8.54535 16.6991 8.75197 16.4675C8.96747 16.2258 9.16146 16.144 9.69476 16.0697C10.5642 15.9489 11.1178 15.72 11.5729 15.2931C11.9677 14.9229 12.1329 14.5661 12.1582 14.029L12.1775 13.6219L11.9569 13.3601C11.1579 12.412 0.0553287 0 0.00616346 0C-0.00433964 0 0.258557 0.335409 0.590355 0.745302ZM5.82406 25.407C6.0047 25.0813 5.90872 24.6628 5.60657 24.4582C5.32108 24.2651 4.8776 24.3561 4.8776 24.6079C4.8776 24.6846 4.91934 24.7405 5.01342 24.7899C5.17183 24.8729 5.18333 24.9662 5.05869 25.1568C4.93247 25.35 4.94265 25.5197 5.08743 25.635C5.32077 25.821 5.65107 25.7187 5.82406 25.407ZM11.2609 7.65138C10.9045 7.59511 10.8895 7.58851 11.0572 7.56227C11.3786 7.51195 12.1376 7.58053 12.6607 7.70711C13.8817 8.00252 14.9928 8.75928 16.1787 10.1033L16.4938 10.4604L16.9446 10.3866C18.8435 10.076 20.7752 10.3229 22.3909 11.0826C22.8354 11.2916 23.5362 11.7076 23.6238 11.8145C23.6516 11.8486 23.703 12.0679 23.7375 12.302C23.8576 13.1117 23.7975 13.7323 23.5542 14.1959C23.4219 14.4481 23.4145 14.5281 23.5034 14.744C23.5744 14.9162 23.7726 15.0437 23.9688 15.0434C24.3703 15.0429 24.8024 14.3823 25.0027 13.463L25.0822 13.0979L25.2398 13.2796C26.104 14.2763 26.783 15.6355 26.8996 16.603L26.9299 16.8552L26.7847 16.626C26.5346 16.2314 26.2835 15.9627 25.9617 15.746C25.3819 15.3555 24.7686 15.2226 23.1448 15.1355C21.6782 15.0568 20.8483 14.9293 20.0252 14.6562C18.6247 14.1915 17.9189 13.5726 16.2554 11.3512C15.5166 10.3646 15.0599 9.81871 14.6057 9.3791C13.5735 8.38022 12.5592 7.85636 11.2609 7.65138ZM23.9545 9.8543C23.9914 9.19317 24.0796 8.75708 24.2567 8.35884C24.3267 8.20121 24.3924 8.07218 24.4025 8.07218C24.4127 8.07218 24.3822 8.18854 24.3348 8.33072C24.2061 8.71723 24.1849 9.24586 24.2736 9.86091C24.3861 10.6413 24.4503 10.7539 25.2606 11.5969C25.6407 11.9923 26.0828 12.491 26.2431 12.7051L26.5346 13.0944L26.2431 12.8162C25.8867 12.4759 25.0671 11.8124 24.8861 11.7176C24.7647 11.654 24.7466 11.655 24.6718 11.7309C24.6028 11.8008 24.5882 11.9058 24.5786 12.4024C24.5637 13.1762 24.4602 13.673 24.21 14.1696C24.0747 14.4383 24.0533 14.3809 24.1758 14.0777C24.2672 13.8513 24.2765 13.7518 24.2758 13.0027C24.2744 11.4974 24.0988 11.1355 23.0691 10.5156C22.8084 10.3586 22.3785 10.1321 22.1141 10.0123C21.8498 9.89251 21.6397 9.78817 21.6472 9.78038C21.6765 9.75083 22.6807 10.0491 23.0848 10.2074C23.686 10.4427 23.7851 10.4733 23.8582 10.4449C23.9071 10.4258 23.9308 10.2808 23.9545 9.8543ZM10.8789 8.69871C10.782 9.86083 11.2297 11.4154 11.9533 12.4293C12.5142 13.2153 13.3837 13.8261 14.0256 13.8851C14.4459 13.9237 14.5722 13.7898 14.3821 13.5072C14.1181 13.1147 13.7934 12.5105 13.7075 12.2518C13.6541 12.0911 13.5381 11.6164 13.4497 11.197C13.1479 9.76483 12.8512 9.20712 12.1659 8.78351C11.9162 8.62912 11.3829 8.42709 11.0736 8.36967L10.9089 8.33907L10.8789 8.69871ZM23.077 19.9755C19.6954 18.5898 18.5044 17.3869 18.5044 15.3573C18.5044 15.0587 18.5146 14.8143 18.5268 14.8143C18.5393 14.8143 18.67 14.9129 18.8175 15.0334C19.5032 15.5931 20.2711 15.8322 22.3969 16.1478C23.6476 16.3337 24.3516 16.4836 25.001 16.7029C27.0649 17.3996 28.3418 18.8133 28.6464 20.7391C28.7348 21.2987 28.683 22.348 28.5395 22.901C28.4262 23.3379 28.0805 24.1251 27.9889 24.1553C27.9635 24.1637 27.9385 24.0646 27.9321 23.9297C27.8973 23.2066 27.5383 22.5027 26.9354 21.9752C26.2498 21.3756 25.3288 20.8984 23.077 19.9755ZM20.5396 19.823C20.5871 19.9669 20.6606 20.2945 20.7029 20.5512C20.9738 22.1918 20.1277 23.5174 18.4817 24.031C18.3075 24.0854 17.6212 24.2222 16.9565 24.3347C15.6111 24.5627 15.0106 24.7242 14.4073 25.02C13.9795 25.2298 13.4616 25.5439 13.4924 25.5751C13.5023 25.5852 13.5999 25.5615 13.7093 25.5224C14.47 25.2505 15.3167 25.1098 16.603 25.0417C17.1135 25.0148 17.6941 24.9717 17.8933 24.9462C19.0392 24.7993 19.8335 24.4449 20.4512 23.8051C20.7948 23.449 20.9997 23.1173 21.1649 22.6496C21.2695 22.3529 21.2837 22.2427 21.2844 21.717C21.2854 21.1814 21.2727 21.0834 21.1592 20.7539C21.0107 20.3219 20.8355 19.9978 20.6137 19.7443L20.4534 19.5613L20.5396 19.823ZM22.2531 23.3532C21.8037 22.3701 21.7007 21.4211 21.9467 20.536C21.9731 20.4413 22.0154 20.3639 22.041 20.3639C22.0665 20.3639 22.1724 20.4223 22.2765 20.4936C22.4835 20.6354 22.8988 20.8744 24.005 21.4882C25.3855 22.2542 26.1725 22.8473 26.7077 23.5252C27.1764 24.1186 27.4665 24.7945 27.606 25.6188C27.6852 26.0857 27.6389 27.2093 27.5212 27.6794C27.15 29.1618 26.2874 30.3262 25.0571 31.0058C24.8769 31.1052 24.715 31.1869 24.6974 31.1874C24.68 31.1877 24.7457 31.0178 24.8434 30.8096C25.2573 29.929 25.3044 29.0724 24.9916 28.1191C24.7999 27.5353 24.4092 26.8229 23.6205 25.619C22.7035 24.2193 22.4786 23.8467 22.2531 23.3532ZM13.7903 26.5775C12.3681 26.8126 10.8067 27.5787 9.55188 28.6571L9.17829 28.9782L9.50661 29.0304C11.2199 29.3026 11.6813 29.5441 12.8697 30.7901C13.5536 31.5071 13.7846 31.6667 14.3519 31.8141C15.1851 32.0305 16.0064 31.6328 16.2881 30.8763C16.4139 30.5382 16.3971 29.9785 16.2527 29.6975C15.9092 29.0282 14.9085 28.8119 14.4246 29.3021C14.0216 29.7105 14.139 30.3256 14.6403 30.4314C14.7551 30.4557 14.7518 30.4505 14.6111 30.3858C14.3917 30.2847 14.2964 30.1448 14.2951 29.922C14.2924 29.3997 14.8796 29.1064 15.426 29.3572C15.826 29.541 15.9848 29.7811 15.9848 30.2019C15.9848 30.85 15.4429 31.3383 14.8123 31.2585C14.4752 31.2157 14.063 30.9963 13.8419 30.742C13.2857 30.1019 13.5024 29.0917 14.2789 28.7041C14.8702 28.4091 15.656 28.4818 16.2655 28.8879C16.9656 29.3547 17.2634 29.7812 17.8664 31.1812C18.0628 31.6371 18.3155 32.1502 18.4279 32.3215C18.9992 33.1919 19.6836 33.6188 20.5081 33.6188C20.9628 33.6188 21.3049 33.5342 21.7352 33.3156C22.055 33.1529 22.5083 32.844 22.4756 32.8109C22.4664 32.8016 22.3337 32.8436 22.1809 32.9042C21.2807 33.2616 20.3656 33.237 19.8341 32.841C19.4995 32.5918 19.2295 32.0953 19.0908 31.4743C19.0667 31.3668 18.9875 30.8921 18.9146 30.4193C18.7299 29.2211 18.5525 28.6824 18.1387 28.0643C17.7154 27.4319 16.9017 26.9012 15.9919 26.6641C15.4243 26.5162 14.4032 26.476 13.7903 26.5775ZM11.7984 17.313C11.9212 16.8513 12.318 16.4109 12.7262 16.2833C12.9857 16.2023 13.5222 16.254 13.7744 16.3845C14.2633 16.6375 14.6182 17.2137 14.5412 17.6296C14.4472 18.1368 13.6392 18.5426 12.7096 18.5492C12.2349 18.5526 12.0595 18.4876 11.8782 18.2413C11.766 18.0886 11.7235 17.5946 11.7984 17.313ZM13.6496 16.5653C13.8934 16.7168 13.9561 16.9409 13.8128 17.1481C13.714 17.291 13.4084 17.4266 13.185 17.4266C12.8494 17.4266 12.4833 17.1841 12.4833 16.9619C12.4833 16.5156 13.1854 16.2767 13.6496 16.5653ZM86.5098 17.8434C85.7515 15.3017 87.0021 13.1935 89.6705 12.516C90.4357 12.3216 93.9008 12.4094 94.4945 12.6382C94.7126 12.7221 94.8075 13.044 94.8095 13.7055C94.8109 14.2265 94.8673 14.8593 94.9346 15.1116C95.0367 15.4941 94.977 15.5694 94.5765 15.5632C94.2141 15.5575 93.9951 15.3436 93.6892 14.6963C93.2007 13.6625 92.6091 13.3336 91.2306 13.3298C89.4708 13.3247 88.1831 14.5186 88.3927 15.9613C88.5293 16.9 89.4601 17.8237 91.5489 19.0936C93.5365 20.3015 94.6965 21.2949 95.1586 22.1849C96.3946 24.5643 95.3392 27.1106 92.5855 28.3936C91.172 29.0521 88.803 29.1202 87.1374 28.5502L86.0708 28.1851V26.4678C86.0708 24.9125 86.1076 24.7502 86.4594 24.7502C86.7537 24.7502 86.8808 24.9462 86.9841 25.5602C87.2411 27.087 88.3925 28.0139 90.0325 28.0139C91.639 28.0139 92.762 27.1295 93.1922 25.5257C93.3754 24.8425 93.3438 24.5906 92.9804 23.8369C92.5448 22.9333 91.7948 22.3337 89.2476 20.853C87.8343 20.0312 86.8348 18.9326 86.5098 17.8434ZM36.5777 13.5307C36.2301 13.5307 36.0945 13.4163 36.0945 13.1227C36.0945 12.7341 36.2301 12.7147 38.9536 12.7147C41.4815 12.7147 41.805 12.7531 41.7471 13.0454C41.7108 13.2274 41.3615 13.4797 40.9704 13.6064L40.2592 13.8367L40.1986 19.0385C40.1579 22.5095 40.2151 24.5117 40.3701 25.0561C40.8313 26.6751 42.2381 27.6061 44.2229 27.6061C45.6047 27.6061 46.4119 27.2805 47.426 26.3137C48.5168 25.2744 48.6907 24.2869 48.6872 19.1544C48.6839 14.0917 48.5964 13.6739 47.5174 13.5688C47.0264 13.5209 46.8619 13.4056 46.8619 13.1099C46.8619 12.741 47.0239 12.7147 49.2997 12.7147C51.6021 12.7147 51.7376 12.7374 51.7376 13.1227C51.7376 13.374 51.601 13.5319 51.382 13.5337C50.4411 13.5421 50.4238 13.6323 50.2972 19.1837C50.1658 24.9486 50.0431 25.6312 48.8837 27.0433C48.5493 27.4507 47.7519 28.0423 47.1117 28.358C46.0686 28.8724 45.7367 28.9315 43.9161 28.9281C42.2378 28.9247 41.7079 28.843 40.8687 28.458C39.6437 27.8961 38.8471 27.1689 38.2598 26.0761C37.8498 25.3132 37.8148 24.9005 37.7199 19.732C37.6111 13.8159 37.5585 13.5307 36.5777 13.5307ZM55.588 13.5307C55.1235 13.5307 54.9881 13.4385 54.9881 13.1227C54.9881 12.7402 55.1179 12.7158 57.0703 12.7315L59.1528 12.7482L60.1491 13.9044C60.6967 14.5402 62.4823 16.5294 64.1166 18.3244C65.751 20.1196 67.6275 22.2078 68.2863 22.9651C68.9453 23.7226 69.5655 24.3422 69.6646 24.3422C69.7664 24.3422 69.8172 22.2028 69.7809 19.4285L69.7168 14.5147L69.1467 14.0227C68.8333 13.752 68.3535 13.5307 68.0803 13.5307C67.7169 13.5307 67.5838 13.4197 67.5838 13.117C67.5838 12.7186 67.6875 12.7053 70.377 12.76C72.664 12.8065 73.1705 12.8708 73.1705 13.1144C73.1705 13.288 72.8876 13.4701 72.4914 13.5515C72.118 13.6282 71.7065 13.7971 71.5772 13.9269C71.4103 14.0943 71.3253 16.2597 71.284 21.3943L71.2257 28.6259H70.6369C70.13 28.6259 69.5267 28.0511 66.3008 24.4951C64.2398 22.223 61.834 19.5228 60.9547 18.4946C60.0753 17.4662 59.2873 16.6171 59.2035 16.6077C58.9677 16.5811 59.0247 25.7686 59.2659 26.6407C59.454 27.3203 59.5833 27.4373 60.3823 27.652C61.0257 27.8247 61.2859 28 61.2859 28.2603C61.2859 28.5945 61.0407 28.6259 58.4418 28.6259C55.7962 28.6259 55.5976 28.5993 55.5976 28.2435C55.5976 27.983 55.789 27.8227 56.1978 27.7405C57.4383 27.4914 57.5207 27.0961 57.5903 21.0525C57.6292 17.6676 57.5721 15.2993 57.439 14.8034C57.2052 13.9314 56.6225 13.5307 55.588 13.5307ZM76.8902 13.5307C76.4549 13.5307 76.3195 13.4338 76.3195 13.1227C76.3195 12.7329 76.4549 12.7147 79.3668 12.7147C82.2785 12.7147 82.4141 12.7329 82.4141 13.1227C82.4141 13.422 82.2785 13.5307 81.9062 13.5307C81.6269 13.5307 81.2118 13.718 80.9838 13.9469C80.5814 14.351 80.571 14.5519 80.6284 20.7972C80.6842 26.8939 80.708 27.2466 81.0815 27.5207C81.2985 27.6798 81.687 27.81 81.945 27.81C82.2785 27.81 82.4141 27.9276 82.4141 28.218C82.4141 28.6078 82.2785 28.6259 79.3668 28.6259C76.5242 28.6259 76.3195 28.6002 76.3195 28.2441C76.3195 27.9569 76.5189 27.8301 77.1243 27.7329C78.3265 27.5399 78.3879 27.1447 78.313 20.0927C78.2531 14.4452 78.2273 14.0931 77.8551 13.82C77.6381 13.6608 77.2039 13.5307 76.8902 13.5307ZM98.1469 13.5307C97.8689 13.5307 97.6576 13.3755 97.5918 13.1227C97.4893 12.7282 97.5858 12.7147 100.514 12.7147C103.407 12.7147 103.542 12.7329 103.542 13.1227C103.542 13.4362 103.407 13.5307 102.958 13.5307C101.679 13.5307 101.707 13.764 103.643 19.0988C104.628 21.8144 105.585 24.3939 105.769 24.8311L106.103 25.6261L107.655 21.4653C109.481 16.5675 109.718 15.6618 109.408 14.7685C109.192 14.1459 108.351 13.5307 107.717 13.5307C107.538 13.5307 107.402 13.3553 107.402 13.1227C107.402 12.7323 107.538 12.7147 110.551 12.7147C113.565 12.7147 113.7 12.7323 113.7 13.1227C113.7 13.413 113.565 13.5307 113.231 13.5307C112.377 13.5307 112 13.9881 112.123 14.8766C112.249 15.7913 115.743 25.6221 115.89 25.475C116.128 25.2358 119.998 14.6528 119.998 14.2404C119.998 13.7461 119.653 13.5307 118.864 13.5307C118.508 13.5307 118.373 13.4183 118.373 13.1227C118.373 12.7374 118.508 12.7147 120.811 12.7147C122.878 12.7147 123.248 12.7629 123.248 13.0313C123.248 13.2056 122.995 13.4367 122.685 13.545C121.989 13.7887 121.814 14.067 120.941 16.3208C120.557 17.3106 119.356 20.4082 118.272 23.2041C117.188 26.0002 116.255 28.4099 116.198 28.5589C116.141 28.7081 115.805 28.83 115.451 28.83H114.808L113.349 25.0051C112.546 22.9017 111.598 20.4095 111.242 19.4671C110.631 17.8522 110.58 17.7821 110.35 18.243C110.216 18.5123 109.252 21.0089 108.207 23.7912L106.308 28.8499L105.6 28.789L104.891 28.728L102.187 21.6043C100.677 17.6242 99.2883 14.2708 99.04 14.0056C98.7955 13.7443 98.3938 13.5307 98.1469 13.5307ZM138.768 13.6172C138.734 13.5397 138.734 13.2612 138.734 13.2612C138.734 13.2612 138.727 13.1608 138.769 13.1072C138.81 13.0538 138.825 13.0524 138.974 13.0381L138.976 13.0379C139.524 12.9854 140.625 12.8969 141.543 12.8565C141.627 12.8528 141.721 12.8485 141.823 12.8439L141.825 12.8438L141.826 12.8437L141.827 12.8437C142.837 12.7975 144.646 12.7357 145.889 12.7983C148.275 12.9184 149.971 14.0802 150.549 16.0001C151.127 17.9199 150.822 19.722 150.034 20.8691C149.245 22.0163 147.92 23.0039 145.718 22.9397C143.899 22.8866 143.413 22.5435 143.024 22.2694C142.942 22.2115 142.864 22.1565 142.779 22.1082V24.5566C142.798 26.2263 142.812 27.0283 142.94 27.3252C143.113 27.7248 143.504 27.971 144.266 28.1597C144.266 28.1597 144.61 28.2411 144.699 28.3279C144.788 28.4147 144.788 28.6074 144.788 28.6074C144.788 28.6074 144.806 28.7875 144.735 28.8794C144.663 28.9712 144.525 28.9528 144.525 28.9528L141.153 28.9254L139.12 28.9201C139.12 28.9201 138.907 28.9612 138.827 28.8748C138.747 28.7882 138.754 28.6078 138.754 28.6078C138.754 28.6078 138.772 28.4136 138.865 28.3266C138.959 28.2395 139.306 28.1423 139.306 28.1423C140.09 27.9205 140.43 27.6859 140.607 27.2438C140.751 26.8874 140.752 26.2265 140.75 20.8332C140.749 15.7185 140.741 14.7645 140.625 14.4901C140.453 14.0839 140.021 13.9763 139.407 13.8231L139.407 13.823C139.285 13.7926 139.156 13.7604 139.021 13.7238C139.021 13.7238 138.802 13.6947 138.768 13.6172ZM148.587 17.7907C148.587 18.6293 148.572 19.9424 147.686 20.7817C146.8 21.6211 145.055 21.8508 143.871 21.6171C143.498 21.5435 143.284 21.4299 143.12 21.3424L143.103 21.3337L142.8 21.1728L142.783 18.2261C142.772 16.3797 142.791 15.1768 142.834 15.0049C142.873 14.0313 144.298 13.9102 144.995 13.9463C147.974 13.9463 148.5 16.4755 148.587 17.7907ZM129.414 12.829C129.414 12.829 129.268 12.8853 129.048 12.9695L128.252 13.3835L127.679 14.8245C127.364 15.617 126.788 17.0718 126.399 18.0574C125.69 19.8526 125.222 21.0321 124.729 22.2631C124.584 22.6252 124.146 23.7278 123.756 24.7135C123.367 25.6989 122.977 26.6369 122.89 26.7978C122.876 26.8245 122.861 26.8533 122.845 26.8837C122.627 27.2967 122.248 28.0139 121.579 28.1224C121.579 28.1224 121.211 28.1588 121.075 28.2943C120.939 28.43 120.952 28.5409 120.952 28.5409V28.7117C120.952 28.7117 120.965 28.7945 121.042 28.8357C121.119 28.877 121.223 28.8794 121.223 28.8794L123.67 28.8513H126.199C126.199 28.8513 126.378 28.8724 126.447 28.8148C126.516 28.7571 126.535 28.6716 126.535 28.6716V28.4918C126.535 28.4918 126.499 28.2967 126.399 28.2205C126.299 28.1445 125.924 28.0925 125.924 28.0925C124.911 27.9583 124.737 27.1868 124.862 26.493C124.924 26.1521 125.33 24.8911 125.789 23.6216L125.947 23.1829L128.597 23.1624C130.054 23.1512 131.312 23.1588 131.393 23.1794C131.508 23.2087 131.669 23.5382 132.142 24.7117C132.858 26.4898 132.915 26.7064 132.757 27.0391C132.747 27.0593 132.737 27.0817 132.726 27.1057C132.577 27.4275 132.288 28.0526 131.56 28.1162C131.56 28.1162 131.173 28.1297 131.077 28.246C130.981 28.3626 131.002 28.4965 131.002 28.4965V28.6745C131.002 28.6745 131.028 28.7788 131.077 28.8202C131.127 28.8615 131.211 28.851 131.211 28.851L133.616 28.8336L136.997 28.8335C136.997 28.8335 137.13 28.8477 137.166 28.7964C137.202 28.7449 137.209 28.6845 137.209 28.6845V28.4481C137.209 28.4481 137.194 28.3224 137.129 28.253C137.065 28.1838 136.626 28.1107 136.626 28.1107C136.066 28.0196 135.787 27.5538 135.579 27.2069C135.526 27.1184 135.478 27.0376 135.431 26.9729C135.335 26.8407 134.991 26.1161 134.721 25.4193C134.452 24.7225 133.845 23.1483 133.372 21.9214C132.898 20.6945 132.238 18.9829 131.904 18.1181C131.57 17.2531 130.936 15.6074 130.494 14.4609C130.422 14.2727 130.357 14.1037 130.298 13.9524L130.298 13.9517C130.002 13.1817 129.883 12.871 129.85 12.829C129.743 12.6924 129.414 12.829 129.414 12.829ZM129.256 17.5142C129.15 17.2528 128.962 16.7838 128.839 16.4721C128.616 15.9054 128.531 15.7748 128.462 15.8919C128.442 15.9261 128.301 16.3134 128.15 16.7526C127.169 19.5963 126.725 20.8767 126.636 21.118C126.58 21.2697 126.535 21.426 126.535 21.4654C126.535 21.5107 127.332 21.5371 128.699 21.5371C129.889 21.5371 130.862 21.5223 130.862 21.504C130.862 21.4858 130.756 21.2145 130.627 20.9006C130.497 20.5868 130.179 19.8035 129.921 19.1599C129.662 18.5163 129.363 17.7758 129.256 17.5142Z" fill="#FF007A"/>
</svg>
